/* XPM */
static char *b0871f81121d4bc5a7fb394ac595468eDbo6i5r4fRUkGL9L[] = {
/* columns rows colors chars-per-pixel */
"50 50 216 2 ",
"   c None",
".  c black",
"X  c #00000B",
"o  c #000117",
"O  c #0D1C0A",
"+  c #220A17",
"@  c #042800",
"#  c #01251C",
"$  c #002616",
"%  c #0A3B00",
"&  c #2B2508",
"*  c #29261B",
"=  c #2A2613",
"-  c #3A3E11",
";  c #2F3313",
":  c #000025",
">  c #080027",
",  c #1A0427",
"<  c #001425",
"1  c #161F27",
"2  c #1B1937",
"3  c #0C0733",
"4  c #290125",
"5  c #221D24",
"6  c #231B28",
"7  c #28172A",
"8  c #380E2E",
"9  c #1D2726",
"0  c #0D3123",
"q  c #252428",
"w  c #27282A",
"e  c #2A2A29",
"r  c #292626",
"t  c #342E24",
"y  c #342D2A",
"u  c #2E3328",
"i  c #2C3826",
"p  c #3A3C24",
"a  c #313B29",
"s  c #252836",
"d  c #2B3538",
"f  c #333036",
"g  c #5A3338",
"h  c #62303A",
"j  c #00530E",
"k  c #394500",
"l  c #3C4313",
"z  c #39471A",
"x  c #2F5504",
"c  c #387E00",
"v  c #336609",
"b  c #3A4226",
"n  c #3B4C2D",
"m  c #374A32",
"M  c #525A1F",
"N  c #48560C",
"B  c #644E14",
"V  c #486604",
"C  c #587103",
"Z  c #576915",
"A  c #5C6C1A",
"S  c #5B7718",
"D  c #437108",
"F  c #657A1E",
"G  c #65781D",
"H  c #766315",
"J  c #434B24",
"K  c #5B4929",
"L  c #455827",
"P  c #484A3A",
"I  c #664A20",
"U  c #64453A",
"Y  c #68563B",
"T  c #496729",
"R  c #586A22",
"E  c #5C7122",
"W  c #4F742C",
"Q  c #657D21",
"!  c #7D6524",
"~  c #060045",
"^  c #060452",
"/  c #0B1656",
"(  c #0D275A",
")  c #042A5D",
"_  c #1E345A",
"`  c #222E46",
"'  c #243856",
"]  c #001A64",
"[  c #001C77",
"{  c #00236C",
"}  c #0A2F67",
"|  c #14386A",
" . c #002773",
".. c #063465",
"X. c #5E144C",
"o. c #631149",
"O. c #612947",
"+. c #7B3254",
"@. c #7D2957",
"#. c #573A66",
"$. c #2B445A",
"%. c #344167",
"&. c #4D4D4D",
"*. c #6A5E53",
"=. c #594A62",
"-. c #605765",
";. c #8D6C19",
":. c #8E6C0D",
">. c #876626",
",. c #94712F",
"<. c #A37E23",
"1. c #8A2C5E",
"2. c #973766",
"3. c #A1396D",
"4. c #B03476",
"5. c #8C6849",
"6. c #917C40",
"7. c #5A871A",
"8. c #629C03",
"9. c #6B831F",
"0. c #648D1B",
"q. c #6F951A",
"w. c #55A200",
"e. c #65A300",
"r. c #6AAA00",
"t. c #77B705",
"y. c #74B818",
"u. c #70A514",
"i. c #4C8529",
"p. c #59842C",
"a. c #589132",
"s. c #6A8320",
"d. c #6E8B22",
"f. c #648D29",
"g. c #619C2B",
"h. c #68962C",
"j. c #739727",
"k. c #6B9A33",
"l. c #718E31",
"z. c #7AA42A",
"x. c #7CAC2D",
"c. c #7CB824",
"v. c #76A933",
"b. c #7CB634",
"n. c #6BA52D",
"m. c #7DC400",
"M. c #749753",
"N. c #7C896C",
"B. c #829D3C",
"V. c #A88225",
"C. c #B28829",
"Z. c #B38E3D",
"A. c #81B32E",
"S. c #85BB2F",
"D. c #83BB33",
"F. c #82B630",
"G. c #C3993A",
"H. c #82C600",
"J. c #85CD00",
"K. c #88CB00",
"L. c #8BD300",
"P. c #84D500",
"I. c #87CA15",
"U. c #8FD615",
"Y. c #8BCC2C",
"T. c #8AC434",
"R. c #8DCD36",
"E. c #89C436",
"W. c #91D239",
"Q. c #96D93A",
"!. c #94D833",
"~. c #8FD22E",
"^. c #8D8D45",
"/. c #A98655",
"(. c #B39359",
"). c #C59F61",
"_. c #D0AC64",
"`. c #E6BD6F",
"'. c #E4BB66",
"]. c #E7BE70",
"[. c #97D54B",
"{. c #9BD853",
"}. c #98CF5B",
"|. c #A8DA77",
" X c #A3D472",
".X c #A9E16C",
"XX c #EAC271",
"oX c #C54284",
"OX c #868487",
"+X c #989698",
"@X c #91A582",
"#X c #A0A39E",
"$X c #9E99A1",
"%X c #B4B2B6",
"&X c #B0DA89",
"*X c #BDE699",
"=X c #BAD7A2",
"-X c #C0EA9C",
";X c #C3D1B8",
":X c #C3E3A8",
">X c #CCE6B7",
",X c #BEBAC1",
"<X c #D4D4D5",
"1X c #D9D8DA",
"2X c #D6EEC4",
"3X c #D5E9C5",
"4X c #DEE9D5",
"5X c #DCF0CD",
"6X c #E4F5D8",
"7X c #E0DDE3",
"8X c #E2E1E3",
"9X c #E6E3E9",
"0X c #F2F6EF",
"qX c #F5F6F4",
"wX c #FAFAFB",
"eX c #F8F8F7",
/* pixels */
"                                                                                                    ",
"                                                                                                    ",
"                                             .{  .{ {  .                                            ",
"                                            m k - b k d                                             ",
"                                      ^ 3 s t.H.m.m.H.t.d 3 ^                                       ",
"                                  [ / k.e.u.>X5X3X3X5X>Xu.r.k./ [                                   ",
"                                 .$.7.H.{.-XqXwXwXwXwXeX*X{.H.S $. .                                ",
"                                ~ d.W.K.>XwXwXeXwXwXwXwXwX>XP.!.0.~                                 ",
"                             .d v.H.[.4XqXwXwXqXwXeXeXeXwXeX4X[.K.x.`  .                            ",
"                    { ^ )    .; T.L.{.qXwXqXwXwXwXeXeXeXeXwX0X}.L.S.;  .  ) ^ {                     ",
"                    *.! B %.] i F.U.{.3XeXwXwXeXeXeXeXwXwXeX3X[.U.D.i ] %.B ! *.                    ",
"                  9 ).XXC.I : u D.!.R.H.:XwXwXwXeXwXeXwXwX:XJ.R.Q.D.t : I C.'._.9                   ",
"              ] P <.Z.Z.K p > u E.D.L y.[.&XeXwXwXwXwXeX&X[.y.L D.T.i > t K Z.G.<.P ]               ",
"            ..Y :.>.>.I < 9 6 e i.g.k.R.L.~.:X3X3X>X3X:X~.L.R.j.g.E e 6 9 < I ! >.:.Y }             ",
"            1 :.<.i 0 9 q w 9 7 h l.R.R.W.R.J.J.P.J.m.P.R.W.W.R.M.h 7 9 q q 9 0 i <.;.q             ",
"            w 7 J Q s.R q 6 : y _.).i D.Q.W.R.W.R.W.R.W.W.Q.b.i )._.y : q q R s.Q J 5 w             ",
"            2 N E G A.F.E r W D.^.U o j n.Q.Q.!.Q.Q.Q.Q.Q.g.j o &.^.F.W y E A.A.G E N 2             ",
"          ' L A d.x.R.T.s.4 S L.j g (./.^.g.g.g.g.g.g.g.g.^./.(.g j L.S 4 9.T.R.z.d.A L '           ",
"        ( N 9.9.z.R.Q.D.Q z M. Xa.6.].].(.g U U U U Y U g (.].`.,.a.|.M.J Q D.Q.R.x.s.Q k (         ",
"        / - G S.W.W.Q.b.u r.:XeX&X8.8 : /.XX`.'.`.`.`.XXXX/.: 8 e.&XqX-Xr.t b.Q.W.W.F.Q - (         ",
"        ( - G S.Q.W.A.Q q c..X*X9X3Xy.y.B.5.5.5.5.5.5.5.5.^.y.m.>X6X=X.Xc.6 Q F.W.Q.F.G - (         ",
"        ( - G z.T.R.j.M w f.t.P.>X;Xe.r.8.i.W w.c c c W i.e.u.w.;X2XL.t.f.r M j.R.T.A.Q - (         ",
"        ( - Q G j.W.x.R q , W T.P.v.=.#.M.W.!.{..X X[.W.E.M.=.=.v.H.T.p., w R z.W.j.G Q J (         ",
"        ( J Q G j.R.x.M q D.A.@ . #XeXwX,X% t.>XeX0X>XH.j ,XwXqX#X. @ b.D.q M x.R.j.F Q - (         ",
"        ( l Q F j.W.z.A E v @X1X-.$XwX2X Xu.D =XwXwX;XD u. X2XwX$X-.1X@Xv E A z.W.j.G Q l (         ",
"        ( k 9.F j.D.A.q.R N.%X1X&.$XwX|.m.[.% +X6X6X+X% W.P.|.wX$X&.1X%XN.E q.A.D.j.Q Q k (         ",
"        } b Q F F F D.t.6 9X1X. . %X0X&XJ.R.n 0.L.L.0.n R.J.&X0X%X. . 7X9X6 t.D.G F s.Q b (         ",
"            a A 9.F d.C w 8X1X9 1X5X}.T k.W.n h.!.!.h.n W.h.W }.4X<X9 <X7Xw C f.9.9.A a             ",
"            2 Z 9.s.9.V e 8X<Xe 9X6Xm.x m p.a L f.f.T a p.n x m.6X9Xe <X8Xe V s.s.9.Z 2             ",
"            6 Z 9.s.Q k . 7X1Xe 7X6XI.D 4 p e , : : , e p , N I.6X7Xu 1X8X. k Q s.9.Z 6             ",
"            s Z 9.s.L X &.1X1Xd 9X6XI.v J Q b 6 d e 6 b Q J v I.6X9Xe <X8X&.X J Q s.Z s             ",
"            6 C Q b . OX9X:Xv.f 9X6XI.N > p R G R Q Q R p 3 V I.6X9Xf x.:X8XOX. b Q C 5             ",
"            | P N q . +XwX*Xw.f =X*XY.T 4 R x.F.F.A.S.x.E 4 T ~.*X=Xs w.*XwX+X. 6 N P |             ",
"              } 2 * . +XwX*Xr.q 8.H.D.L b d.R.Q.Q.W.Q.R.d.p L D.m.e.q r.*XeX+X. r 2 }               ",
"                  w . +XeX-Xr.6 > L Q b J d.R.W.W.W.W.T.d.J b G L > 6 r.*XeX+X. w                   ",
"                    . +XwX-Xr.1 o # b R F s.d.F.Q.Q.F.d.9.F E b # o 6 r.:XwX+X.                     ",
"                    3 N.>X.Xr.7 1.1.O x S 9.G f.k.k.d.F d.S x $ @.1.7 t.|.>XN.3                     ",
"                    ^ V t.~.b.8 3.2.O.X.Y S S L : : J 7.S Y o.O.3.4.7 b.~.t.V ^                     ",
"                    ' + w E.D.6 o 1.oXoX2.$ q e e e r 9 # 2.oXoX@.o 7 b.T.e + _                     ",
"                      { , E.b.: >.>.X.O.2.4.4.1.# # 1.4.4.2.O.X.>.>.: b.T.+ ]                       ",
"                        * f.j.>.C.V.H % O.2.2.+.# # +.3.2.O.% H C.C.>.l.f.*                         ",
"                        ` : I V.V.V.V.K < # $ 0 e e # $ # < K <.V.V.V.I : `                         ",
"                          ` & t t t y e q r w r e e e w q r y y t t p & `                           ",
"                                  ) O & * r e w e r r r r r & O )                                   ",
"                                    ' _ ` = * * * * * * * ` ' _                                     ",
"                                        | d s ` s ` s s s |                                         ",
"                                                                                                    ",
"                                                                                                    ",
"                                                                                                    ",
"                                                                                                    "
};
