/* XPM */
static char *_12214874ef141e0df949f5c0d81e23aIQgl9HTNzSSlRbn6[] = {
/* columns rows colors chars-per-pixel */
"50 50 226 2 ",
"   c None",
".  c #000001",
"X  c #040409",
"o  c #000015",
"O  c #00001C",
"+  c #080A10",
"@  c #0C1011",
"#  c #261E01",
"$  c #002B00",
"%  c #1B3400",
"&  c #123814",
"*  c #042F0E",
"=  c #2A2719",
"-  c #34340C",
";  c #010125",
":  c #000D29",
">  c #030428",
",  c #160327",
"<  c #071425",
"1  c #1A1827",
"2  c #000037",
"3  c #27062A",
"4  c #271D2A",
"5  c #3B1B2F",
"6  c #032823",
"7  c #182D27",
"8  c #292722",
"9  c #292B26",
"0  c #242528",
"q  c #292928",
"w  c #252727",
"e  c #342A28",
"r  c #383627",
"t  c #252836",
"y  c #373935",
"u  c #27313E",
"i  c #4A2400",
"p  c #49003D",
"a  c #473932",
"s  c #48322E",
"d  c #004803",
"f  c #144F10",
"g  c #365415",
"h  c #385312",
"j  c #346B00",
"k  c #1D4329",
"l  c #3A4927",
"z  c #274024",
"x  c #424C16",
"c  c #594512",
"v  c #4A5009",
"b  c #795800",
"n  c #725817",
"m  c #4B7800",
"M  c #4C6A17",
"N  c #5C751B",
"B  c #4F6A11",
"V  c #657B1F",
"C  c #444725",
"Z  c #55462D",
"A  c #475828",
"S  c #515C24",
"D  c #44423E",
"F  c #674B26",
"G  c #6B5925",
"H  c #765B26",
"J  c #6C5732",
"K  c #486227",
"L  c #556924",
"P  c #577126",
"I  c #7E6026",
"U  c #657C21",
"Y  c #687F20",
"T  c #656635",
"R  c #76663C",
"E  c #66753B",
"W  c #000046",
"Q  c #001A44",
"!  c #00055B",
"~  c #001258",
"^  c #192949",
"/  c #162854",
"(  c #07275A",
")  c #000767",
"_  c #001565",
"`  c #00266C",
"'  c #002B61",
"]  c #193968",
"[  c #002871",
"{  c #14376F",
"}  c #223F61",
"|  c #242E45",
" . c #540042",
".. c #660F50",
"X. c #4E2E4D",
"o. c #6D284E",
"O. c #365249",
"+. c #224070",
"@. c #555452",
"#. c #75424B",
"$. c #566F4A",
"%. c #7A6642",
"&. c #464D63",
"*. c #5D6176",
"=. c #767778",
"-. c #666664",
";. c #82661D",
":. c #916E0E",
">. c #A57F1F",
",. c #8E6D29",
"<. c #866825",
"1. c #957327",
"2. c #937739",
"3. c #8F722F",
"4. c #A37E25",
"5. c #A17E32",
"6. c #8A295F",
"7. c #823F56",
"8. c #9B0A6B",
"9. c #972467",
"0. c #8D2062",
"q. c #AB3673",
"w. c #BC3E7E",
"e. c #B33878",
"r. c #8E7646",
"t. c #A1416B",
"y. c #2A8300",
"u. c #4D8A00",
"i. c #489800",
"p. c #5C9700",
"a. c #6B841F",
"s. c #6A8A1A",
"d. c #689903",
"f. c #6AA600",
"g. c #6DBB00",
"h. c #75B900",
"j. c #72AB0F",
"k. c #5A8E27",
"l. c #698220",
"z. c #618A2F",
"x. c #6A9532",
"c. c #68962B",
"v. c #76A928",
"b. c #7AAF34",
"n. c #7CB532",
"m. c #7BB12F",
"M. c #79C100",
"N. c #7D9A64",
"B. c #7BAC48",
"V. c #AC8525",
"C. c #B28924",
"Z. c #B48B2A",
"A. c #B98F28",
"S. c #BC9439",
"D. c #BD9228",
"F. c #82B833",
"G. c #82B42F",
"H. c #C69B3B",
"J. c #84CD00",
"K. c #8BD30A",
"L. c #87C534",
"P. c #92D339",
"I. c #97DB3B",
"U. c #8AC92B",
"Y. c #99E123",
"T. c #9C8356",
"R. c #B4924A",
"E. c #B89858",
"W. c #A6864E",
"Q. c #83817E",
"!. c #8CB56D",
"~. c #C29B56",
"^. c #D79452",
"/. c #C6A45E",
"(. c #D5AC54",
"). c #D2A952",
"_. c #DB9677",
"`. c #C8986B",
"'. c #C7A363",
"]. c #D2AC67",
"[. c #D1AF6D",
"{. c #E3BC6B",
"}. c #E2B966",
"|. c #E2A07C",
" X c #98D74A",
".X c #98CE5D",
"XX c #8DC648",
"oX c #A7D975",
"OX c #EAC26A",
"+X c #EAC273",
"@X c #F5CA72",
"#X c #BA0082",
"$X c #C33D82",
"%X c #CB4387",
"&X c #868686",
"*X c #979796",
"=X c #8D8C97",
"-X c #B1A197",
";X c #A49AAA",
":X c #B3AEAB",
">X c #AEACB2",
",X c #B4B4B4",
"<X c #B1DC8A",
"1X c #B1D593",
"2X c #B6E28D",
"3X c #BCE29C",
"4X c #BEDCA6",
"5X c #BFD0B3",
"6X c #BEE0A1",
"7X c #C4DEB1",
"8X c #F1D6B2",
"9X c #CCEAB4",
"0X c #C5E5AB",
"qX c #F4CD83",
"wX c #C6C6C9",
"eX c #D9D7DA",
"rX c #CFD1D2",
"tX c #E6DECE",
"yX c #DAECCC",
"uX c #E4F0DB",
"iX c #EEE8DC",
"pX c #E6E6E5",
"aX c #EDF8E4",
"sX c #F4F5F3",
"dX c #FDFBFD",
"fX c #F6FBF2",
/* pixels */
"                                                                                                    ",
"                                                                                                    ",
"                                              [ [ [ [                                               ",
"                                            u - 9 9 - |                                             ",
"                                      ! 2 ^ f.h.h.h.M.f.| W !                                       ",
"                                    +.z.p.d.0X9X9X9X9X4Xd.p.z.}                                     ",
"                                  _ - L.I.<XfXdXdXdXdXsX2XI.L.- )                                   ",
"                                  ) = h.0XsXdXsXdXsXdXfXfX0Xh.= )                                   ",
"                                _ $.n.J.9XdXdXdXdXdXdXdXdX9XJ.m.P _                                 ",
"                        _ ~ ` { 2 d.I.h.5XdXpXyXyXuXuXuXdX7Xh.P.s.2 { [ ~ _                         ",
"                      +.y X.a 8 3 x.L.f >XfXoXJ.U.U.M.oXfX>Xf U.c.3 = y @.a +.                      ",
"                    W &XpXsXwX= ~.E.K v..XoX Xj.h h j.I.oX.Xv.K E.E.= wXpXpX&XW                     ",
"                    . &XdXaX1Xe }.`.o L.Y.J.m.j X X h v.J.Y.L.o '.{.e :XaXdX&X.                     ",
"                    &.:XdX<Xy.e '.E.R b.U.n.% X.=.N.X.% n.L.b.T E.'.e i.<XdX:X&.                    ",
"                ` < rXdXdX*X. q ; T.{.R o 6 . ,XdXdX:X. 6 o %.{.W.; q . *XdXdXrX< `                 ",
"                ` X tXfX3X$.. w . 2.@X].E.[.rXtX8X8XtXrX[.E.[.@X3.. q X $.2XfXeXX `                 ",
"              ` W + eXaXK.f.j . =X-X~.+X@XqXiX8X^.^.8XiX@X@X@X~.-X=X. j f.J.aXeX+ W `               ",
"              &.a @ rXuXP.K.v.@.pXrX% /.{.{.OX_.#X#X_.{.{.{.].% rXpX@.v.K.P.uXrX@ a &.              ",
"          [ . wXeXy X.N.P.u.*XpX6X XL.E a %.OX_.#X8.|.{.%.s E F. X6XpX*Xu.P.N.X.y eXwX. [           ",
"        _ *.,XyX4Xy . $ z.. ;XdX2Xg.c.z . . r.`.|.|._.r.. . z x.g.2XdX;XX z.$ . y 7XyX,X*._         ",
"        > &XdX0Xi.9 A P K $ *XpX2Xf.; o -.&X; 3.}.{.3.; &X-.o ; f.<XpX*X$ K P l 9 i.0XdX&X;         ",
"        2 Q.fX>XX 4 b.I.L.v.S y L.n., . ,XsX=.. 9 9 . =.sX,X. , b.L.y A v.P. XB.4 . >XdX&X2         ",
"        ! $.2XN.X > f k.v.L o @ L.n., X @.*XpX>X. . :XpX;X@.X , n.P.X O K v.k.f O . N.2XE !         ",
"        [ O.p.j Z T.T.%.S I F q x.z.3 I i ; wX:Xb b :XwXO i H 3 k.c.9 F I S r.W.W.Z j p.O.[         ",
"          { s X R OX@X/.1 1.1.1 , 1 C 1.1.r . b Z.Z.b . r ,.4.a 1 < 1 1.1.4 ~.@X+XR . 5 {           ",
"        ' Z 4.F Z H.H.5.< < @ O P l.U l <.C.V.<.r r <.V.C.<.l V l.L ; @ < : 4.H.S.Z F V.Z '         ",
"        ~ H ).R.n n i n ,.E.'./.E M a.7 s <.A.,.> > ,.A.<.s 7 l.M R ~.'.R.3.n c n I R.(.H ~         ",
"        W R {.(.>.> @.2.A.(.{.].R g a.S 6 < 1.H > > H 3.6 6 S l.g %.].{.(.Z.2.@.> :.(.+XR W         ",
"      t . %.{.).:.0 '.}.C.A.,.0 P l.l.a.L 4 0 w 9 9 9 9 4 L l.Y a.N 7 ,.C.Z.}.'.9 :.).{.R X t       ",
"      O R.[.%.Z H 4.~.H.Z.H x N G.G.V g 7.q.p k.L.L.k.p q.#.g U G.F.N C H A.H.H.4.H Z %.].E.O       ",
"      ' T.E.H 8 r ,.;.<.<.e z a.P.F.V * 6.%Xp c.I.I.c.p $X0.* U L.P.s.z r <.I ;.,.s q H R.T.'       ",
"        ~ s V.H : < < w s 4 C a.F.b.U f 6.$Xp k.I.P.k. .$X6.& U F.F.l.C 4 s 0 : < : H V.s )         ",
"          { a = q q < G V.F l V A A V f 6.w. .c.I.I.k.p t.9.f Y S A Y l F C.G : 9 0 = a ]           ",
"              | = 1 1 a H s l a.r C s.d 6.$X .u.J.K.p.p $X6.d a.A r V l s H a 1 1 = ^               ",
"              / - A r > : r L a.l l B #.0.t.T !.3X3X!.T t.0.#.L l l a.L r : > r C - /               ",
"              ( x Y A 1 9 P a.Y l > s w.8.d M.9XdXdX9XM.d 8.e.s O C V a.P q 1 A l.x /               ",
"                ] r V L 1 L a.a.d o.e.%X8.$ g.9XdXdX9Xg.$ 8.%Xw.o.d l.a.P 4 L N l +.                ",
"                  1 v L L U N S 7.q.$X9.R B.7XaXdXdXaX0XB.%.9.%Xq.#.K N U S L v 1                   ",
"                  | , l a.s.M 3 e.%Xw.p y..XpXfXaXaXsXpX.Xy.p w.%Xe.3 M a.a.C , |                   ",
"                    / x l.l.M 4 q.%X$XX.o A XX X X X XXXl o X.$X%Xe.4 M a.l.x /                     ",
"                    ^ v V A G 1.#...o.,.n < m m m m m m < n ,.o...#.1.G S Y v /                     ",
"                    { O.B & H A.;.v n ~.R.; ; > > > ; > ; W.).n c ;.A.H & B O.'                     ",
"                        t : F C.C.C.A.+XE.O 1 q q q q 1 O E.}.D.V.C.V.J : t                         ",
"                            } s V.D.Z.R a 0 w w q q q w 0 a R C.D.>.c ]                             ",
"                              ' J :.n # o q q q q q q q q O # I :.J '                               ",
"                                ( Q : ^ u 8 8 8 8 8 8 8 = u ^ Q : (                                 ",
"                                        ] = 8 9 q q 8 8 = ]                                         ",
"                                                                                                    ",
"                                                                                                    ",
"                                                                                                    "
};
