/* XPM */
static char *_b1e8b93acb740b4cb814024998b8229z9OjhzdRTuep6Tn9[] = {
/* columns rows colors chars-per-pixel */
"50 50 240 2 ",
"   c None",
".  c #000001",
"X  c #000E09",
"o  c #0A1701",
"O  c #010117",
"+  c #160015",
"@  c #001617",
"#  c #1E0000",
"$  c #291C0C",
"%  c #002604",
"&  c #162403",
"*  c #002617",
"=  c #142F1B",
"-  c #2A2302",
";  c #26261F",
":  c #29261C",
">  c #2D2817",
",  c #3D3814",
"<  c #30330F",
"1  c #020026",
"2  c #170227",
"3  c #001625",
"4  c #031927",
"5  c #00003E",
"6  c #0C003B",
"7  c #060337",
"8  c #00183F",
"9  c #190A39",
"0  c #241A28",
"q  c #2E0A2B",
"w  c #182525",
"e  c #002228",
"r  c #292B25",
"t  c #2A2A2A",
"y  c #272528",
"u  c #332A2A",
"i  c #322523",
"p  c #373628",
"a  c #262A37",
"s  c #313234",
"d  c #4A3A11",
"f  c #4C1C3A",
"g  c #493030",
"h  c #702D3E",
"j  c #004400",
"k  c #194611",
"l  c #00411F",
"z  c #2E4F12",
"x  c #337B00",
"c  c #3A4626",
"v  c #3B522A",
"b  c #2F472F",
"n  c #006419",
"m  c #475917",
"M  c #735912",
"N  c #416A01",
"B  c #536806",
"V  c #4D651C",
"C  c #57691D",
"Z  c #5D751B",
"A  c #477300",
"S  c #667B1E",
"D  c #64781E",
"F  c #7E6018",
"G  c #484524",
"H  c #574525",
"J  c #475826",
"K  c #594A39",
"L  c #52582E",
"P  c #725625",
"I  c #664F2C",
"U  c #466426",
"Y  c #5A6625",
"T  c #5D7223",
"R  c #58782B",
"E  c #597B35",
"W  c #647D22",
"Q  c #607421",
"!  c #7B653C",
"~  c #010043",
"^  c #060047",
"/  c #001848",
"(  c #00005A",
")  c #000356",
"_  c #0C1E53",
"`  c #003359",
"'  c #1E3459",
"]  c #0A2B51",
"[  c #242E45",
"{  c #223457",
"}  c #34384A",
"|  c #000E6C",
" . c #00286A",
".. c #023569",
"X. c #143A6D",
"o. c #193768",
"O. c #002774",
"+. c #163C76",
"@. c #203863",
"#. c #6F0F4F",
"$. c #682649",
"%. c #68314E",
"&. c #7B2A54",
"*. c #762F4F",
"=. c #4F3661",
"-. c #365151",
";. c #134247",
":. c #534D53",
">. c #694E48",
",. c #50744A",
"<. c #726E44",
"1. c #4F5264",
"2. c #7B7977",
"3. c #717069",
"4. c #685E71",
"5. c #8F6F16",
"6. c #A47D1C",
"7. c #886A27",
"8. c #9D7B23",
"9. c #947228",
"0. c #9C7727",
"q. c #8C7133",
"w. c #A27E25",
"e. c #A27F30",
"r. c #88345C",
"t. c #842D5A",
"y. c #9A006A",
"u. c #A50072",
"i. c #A90073",
"p. c #8D2A61",
"a. c #922A64",
"s. c #9B3767",
"d. c #B63C7A",
"f. c #AA3B72",
"g. c #877846",
"h. c #957E49",
"j. c #916E4B",
"k. c #BA7877",
"l. c #90615E",
"z. c #D37578",
"x. c #578501",
"c. c #5C9700",
"v. c #55860C",
"b. c #61880A",
"n. c #699903",
"m. c #6A831F",
"M. c #608E1A",
"N. c #6D8F1A",
"B. c #65A200",
"V. c #6AA702",
"C. c #70B400",
"Z. c #6A8321",
"A. c #668927",
"S. c #6B9425",
"D. c #739726",
"F. c #6C902E",
"G. c #7DAD2C",
"H. c #78A629",
"J. c #7DB434",
"K. c #75AC2F",
"L. c #509611",
"P. c #7EC500",
"I. c #6B8266",
"U. c #AA8326",
"Y. c #B98F28",
"T. c #B48B26",
"R. c #BA9235",
"E. c #B68E31",
"W. c #81B22E",
"Q. c #84BC2D",
"!. c #85BC32",
"~. c #AA821E",
"^. c #85CB00",
"/. c #84C900",
"(. c #8BD401",
"). c #8BD208",
"_. c #89CC16",
"`. c #8ACB27",
"'. c #89C435",
"]. c #8ECC36",
"[. c #87C437",
"{. c #8FD234",
"}. c #91D434",
"|. c #91D239",
" X c #95D93A",
".X c #96DC39",
"XX c #8FD227",
"oX c #9CE13C",
"OX c #A48652",
"+X c #B79758",
"@X c #AE8D54",
"#X c #B98774",
"$X c #AAA561",
"%X c #C59F51",
"&X c #C8A55B",
"*X c #D6AC55",
"=X c #DAB468",
"-X c #CBA964",
";X c #E3BB6B",
":X c #EEBC79",
">X c #D3A862",
",X c #9DD957",
"<X c #A3DB68",
"1X c #A5D773",
"2X c #ECC372",
"3X c #E7C070",
"4X c #F2C874",
"5X c #7E7E81",
"6X c #C33483",
"7X c #C34282",
"8X c #CA4386",
"9X c #858385",
"0X c #938A98",
"qX c gray60",
"wX c #A8A7AA",
"eX c #AEBAA5",
"rX c #A4BA90",
"tX c #C3A5B1",
"yX c #B7DA99",
"uX c #ABD287",
"iX c #B9E394",
"pX c #BEE899",
"aX c #BDDEA1",
"sX c #C4D4B6",
"dX c #C5E8A8",
"fX c #CDE8B7",
"gX c #CEEEB4",
"hX c #D8D9D9",
"jX c #C8C7CB",
"kX c #D6E9C7",
"lX c #DEEAD5",
"zX c #EDEAD6",
"xX c #DEDDE1",
"cX c #E9ECE8",
"vX c #E9F4E1",
"bX c #F1F5EE",
"nX c #FCFBFC",
"mX c #F6F7F5",
"MX c #EFF3F2",
"NX c #ECDFE0",
/* pixels */
"                                                                                                    ",
"                                                                                                    ",
"                                                                                                    ",
"                                                                                                    ",
"                                        ^ 6 6 6 6 7 6                                               ",
"                                    | [ c.V.B.B.V.H.H.-.|                                           ",
"                                  O.;.b.yXiXiXiX,X).}.N.-.O.                                        ",
"                                  ^ n.1XbXnXnXnXdX^.|..XH.9                                         ",
"                               .s V.dXbXmXnXnXnXbXkXXXXX{.W.v O.                                    ",
"                              O.< P.fXnXnXmXmXmXnXvX`.`. X{.z |                                     ",
"                              ( o B.fXnXmXmXnXnXbXfXXX{.].!.m {                                     ",
"                            { > t . wXnXmXnXnXnXyX/.].|.W.S S m _                                   ",
"                  8 8     8 jXbXcX4.M.pXmXnXMXuX,X_.|. X!.D = & [                                   ",
"              ..K 5.5.:.) o tXzXzX4.% H.dXkXdX^.^.|.|.!.N.I OX! /                                   ",
"              7 M T.T.5., w y.z.*XOXq = P.(.^.'.'.'.[.Z.% K 2X+X5                                   ",
"              ] X g U.Y.8.r y.z.2X2X+Xl ]..X'.m.m.m.W c O L ;X@X~                                   ",
"            } &X%X6.T.Y.8.; #X2X3X2X3X&XL n v * * @ = +X=X-Xh.g /   | 7 ~                           ",
"           .< *X%X7.P U.U.; OX-X4X2X4X2X+Xh.OXOXOXOX@X:X2X@X1 % L o.I.n.F.-.                        ",
"            s 9.7.K p 7.9.p O ! =X=X=X=X=X2X2X2X2X3X=X=XOXO v A.D $ W.oX|.A (                       ",
"              5 OX3XR.P 3 r t : - $ , p y +X4X;X4X-Xi u q v [.W.Y 0 G. X|.V (                       ",
"              ^ q.%XY.6.7.0 . 9XhXcXwX. O K g.j.j.F.V.C.A r ].J.Y t z x R c '                       ",
"              ^ m 5.9.0.9.J . 5XhXhXeXx.A.x.x x . I.dXgXrXM.{.G.B ; 0X0X. . @.                      ",
"              :.H i 3 1 b m.J + # . v.|.{.,X1X<Xx 0XnXnXkX(.}.G.B o hXxX:.> ]                       ",
"          O.p =X*X6.g 1 G m.v I U.d 1 U /.fXnXmXl.5XnXnXkX(.}.G.C y J.dXMX2.5                       ",
"           .. g.q.P 9.I 4 J e P Y.w.P = ^.lXnXnXxXxXmXnXkX).K.R p y c.pXnX9X5                       ",
"          1.h.h.! P E.9.H 0 r Y 9.0.P b V.yXvXnXnXnXmXcXdXP.Z i O O rXgXkX3.7                       ",
"        ^ q.;X2X&XU.U.T.0.u T T w w r 0 1 c.1XbXmXnXbX1XP.[.v 2 o < xXvXP.x + a                     ",
"        / M R.q.s d U.Y.w.0 J.`.C Q L 2 2 O E <X<X<X<XA.r v Z G z `.vXvX_.A + a                     ",
"          1.P . <.+XE.T.0.t h.$XQ.Q.D.J J Y V A x.x.x.w 2 C W.R U ].iXiX.Xv O a                     ",
"            3 ! %X=XR.T.8.t i.k.}. X'.D.H.S.Z p 0 i i p T W. XF.J |.)./.J.A.m a                     ",
"           .p =X*X~.U.T.w.r u.#X].}.|.|.|.G.S m.m.m.A.S K.|.|.A.v ]. XK.0 [.G.6                     ",
"           .> E.e., d 8.U.r u.#X}.}.|.|.|.|.!.S !.{.].].|.|. XF.1 J [.!.1 C.V.9                     ",
"            @.P K  . .>.M w i.#X{.{.|.|.|.[.W.!.H.F.W.K.'.{.G.A.G 2 E c.B.fXeXO                     ",
"              ]  .    ` X w i.#XXX[.[.|.'.D.Z.!.U 2 C F.G.'.Z.S S r X ,.iXnXjX.                     ",
"                      ' & w u.#X|.S.H.].A.m.D r y 2 p [.J.S Z.m.Q r . qXnXnXjX.                     ",
"                      ' - w f l.k.q.b.D.m.J c T T F.[.H.Y c Z.m.Q 0 c.dXmXqX1.                      ",
"                        { t % #.6Xg.B m.m.J p W S D.W.S.m @ J V z @ C.dXnX2.O                       ",
"                          y % &.d.g.b.m.Z c c Z.Z.S W Z I $.q f #.$.n.yXvX2.~                       ",
"                          a % &.7Xg.x.W p 1 G Z.Z.Z.S k p.d.s s.7Xd.#.v.|.Z )                       ",
"                            e t.7Xg.x G f.&.% k z j z s.s.%.+.=.h $.q S XXB )                       ",
"                            ] *.7X<.K s.6Xd.r.a.a.a.s.6Xs.* ....` ` | ,.H.-.O.                      ",
"                            ` *.d.f t.6X7X7X6Xd.d.d.d.d.r.* - '         ~                           ",
"                              o.u % r.6X7X7Xd.u w 0 y u u t r ; [                                   ",
"                              ..& = g *.*.$.>.w.8.w.8.G 4 t r - a                                   ",
"                                ' t & % * @ c 9.0.9.9.g 4 > > [ X.                                  ",
"                                  { a a r ; ; 4 3 3 4 ; s [ t X.                                    ",
"                                        a - : r ; ; ; - {                                           ",
"                                          X.X.X.X.X.X.X.                                            ",
"                                                                                                    ",
"                                                                                                    "
};
