/* XPM */
static char *fb16860785b14ec9e362c30d3f8a020fCJdPgbchFzhQDx84[] = {
/* columns rows colors chars-per-pixel */
"50 50 243 2 ",
"   c None",
".  c #000001",
"X  c #000009",
"o  c #00001B",
"O  c #000013",
"+  c #031B15",
"@  c #001C0C",
"#  c #28110A",
"$  c #002401",
"%  c #002708",
"&  c #032719",
"*  c #0C2B08",
"=  c #282605",
"-  c #28251A",
";  c #322812",
":  c #2B310C",
">  c #000123",
",  c #000029",
"<  c #090426",
"1  c #170127",
"2  c #001524",
"3  c #071A28",
"4  c #18162A",
"5  c #00003D",
"6  c #0A0036",
"7  c #001435",
"8  c #251825",
"9  c #38152F",
"0  c #1C2528",
"q  c #082C27",
"w  c #282623",
"e  c #2C232B",
"r  c #2A2B29",
"t  c #272727",
"y  c #322728",
"u  c #2C3627",
"i  c #383628",
"p  c #272B37",
"a  c #392836",
"s  c #383735",
"d  c #4C3C0E",
"f  c #480D32",
"g  c #46362A",
"h  c #4B2838",
"j  c #463C36",
"k  c #533127",
"l  c #004602",
"z  c #174606",
"x  c #1E4911",
"c  c #364A17",
"v  c #32570D",
"b  c #347400",
"n  c #3A4627",
"m  c #3C5525",
"M  c #17631B",
"N  c #534516",
"B  c #4B4C17",
"V  c #517E00",
"C  c #5B6C1A",
"Z  c #4E7309",
"A  c #657B1E",
"S  c #687D1E",
"D  c #454C23",
"F  c #5B4927",
"G  c #495A25",
"H  c #515A22",
"J  c #545035",
"K  c #6B552B",
"L  c #6A5523",
"P  c #775C23",
"I  c #66543B",
"U  c #604E2F",
"Y  c #4D6524",
"T  c #586924",
"R  c #5B7626",
"E  c #537634",
"W  c #657D21",
"Q  c #607522",
"!  c #766831",
"~  c #010045",
"^  c #07024D",
"/  c #00045B",
"(  c #011858",
")  c #001E48",
"_  c #04335A",
"`  c #102851",
"'  c #242E46",
"]  c #25324B",
"[  c #001863",
"{  c #000066",
"}  c #00246B",
"|  c #002B6D",
" . c #002B63",
".. c #023668",
"X. c #143A6D",
"o. c #1B3663",
"O. c #083277",
"+. c #2A3A65",
"@. c #373A6D",
"#. c #740054",
"$. c #512843",
"%. c #682A49",
"&. c #70334D",
"*. c #6F2F4B",
"=. c #2E484E",
"-. c #384468",
";. c #4E4C58",
":. c #4B6F4B",
">. c #70716F",
",. c #685E5C",
"<. c #86671C",
"1. c #95750E",
"2. c #896925",
"3. c #957329",
"4. c #9A7826",
"5. c #987939",
"6. c #A37E25",
"7. c #88355C",
"8. c #860261",
"9. c #931165",
"0. c #8D2B61",
"q. c #943165",
"w. c #BA3C7C",
"e. c #B83A7B",
"r. c #A73970",
"t. c #89085F",
"y. c #C33979",
"u. c #866646",
"i. c #957B4A",
"p. c #9C7954",
"a. c #927251",
"s. c #9F6561",
"d. c #BA657A",
"f. c #9C665F",
"g. c #C05F7E",
"h. c #C2607F",
"j. c #358100",
"k. c #568601",
"l. c #579500",
"z. c #5C861A",
"x. c #478800",
"c. c #699900",
"v. c #6B831E",
"b. c #688C1C",
"n. c #689114",
"m. c #69A700",
"M. c #70B300",
"N. c #6A8320",
"B. c #6D8B23",
"V. c #648624",
"C. c #6A9828",
"Z. c #739927",
"A. c #689534",
"S. c #658D37",
"D. c #7DAB2D",
"F. c #77A528",
"G. c #76A932",
"H. c #7DB435",
"J. c #7FB52F",
"K. c #5A932B",
"L. c #7BC600",
"P. c #7B9C5A",
"I. c #AD841F",
"U. c #80BE1C",
"Y. c #AD8628",
"T. c #AC8526",
"R. c #B28A28",
"E. c #B68D27",
"W. c #B78F35",
"Q. c #82B92D",
"!. c #85BC34",
"~. c #C49937",
"^. c #85CB01",
"/. c #8BD303",
"(. c #8ED416",
"). c #89CB29",
"_. c #8AC434",
"`. c #8DCA36",
"'. c #8CCB37",
"]. c #8ED332",
"[. c #92D339",
"{. c #96DA3A",
"}. c #94D737",
"|. c #8FCF30",
" X c #9B824D",
".X c #B69446",
"XX c #A48753",
"oX c #B99A5A",
"OX c #80817F",
"+X c #B69C65",
"@X c #C59F52",
"#X c #C9A455",
"$X c #CEAA62",
"%X c #D1AC66",
"&X c #DAB468",
"*X c #E3BB6C",
"=X c #E5B864",
"-X c #E8BC73",
";X c #C59F61",
":X c #98C845",
">X c #97D549",
",X c #9DD858",
"<X c #94C75D",
"1X c #9ACD63",
"2X c #A4DB69",
"3X c #A8D878",
"4X c #A1C97A",
"5X c #ABE272",
"6X c #ECC472",
"7X c #F0C774",
"8X c #F3CA74",
"9X c #7B7481",
"0X c #BC1080",
"qX c #BF4080",
"wX c #C44183",
"eX c #C34E81",
"rX c #C85781",
"tX c #A59290",
"yX c #A8A9A7",
"uX c #B9B6B9",
"iX c #B2B0B1",
"pX c #9D9C9F",
"aX c #B2D395",
"sX c #BAE495",
"dX c #B6E886",
"fX c #BDDCA3",
"gX c #C4D0BB",
"hX c #C3E5A6",
"jX c #CEE7BB",
"kX c #CEF0B0",
"lX c #D7D7D8",
"zX c #C6C6C9",
"xX c #D4E9C5",
"cX c #DFEED2",
"vX c #E2F1D8",
"bX c #EBEDD8",
"nX c #EAEBEC",
"mX c #ECF5E6",
"MX c #F5F6F4",
"NX c #FCFBFC",
"BX c #F7F9F6",
"VX c #F0EEF0",
"CX c #EFCFD7",
/* pixels */
"                                                                                                    ",
"                                                                                                    ",
"                                                                                                    ",
"                                                                                                    ",
"                                    ..6 6 6 6 6 6 (                                                 ",
"                                  { :.F.F.m.c.m.m.k./                                               ",
"                                | G D.{./.2XsXsXsX4XZ _ O.                                          ",
"                              } n Q.{.].).xXNXNXNXvX'.Z /                                           ",
"                            / E _.[.^.2XnXMXNXMXNXBXvXaXx.^                                         ",
"                            ^ z.{.[.^.1XMXNXMXNXBXNXnXdXm.7                                         ",
"                            ] R _.[.^.2XcXMXNXMXBXNXBXdXk.o }                                       ",
"                          t C N.v.!.[.|.^.xXNXMXBXNXMXeX. r u o.                                    ",
"                          r @ c v._.{.[.(.>XhXNXNXmX3Xv pXVXnXyX5    .7 )                           ",
"                          0 i.i.Y F._.[.[./.,XjXxXaXc.. tXbXCXtX.  .I 1.<.;.                        ",
"                          3 &X%Xo c Z.`._._.).^./.M.> j .X=Xy.#.& N 6.E.6.d (                       ",
"                          3 $X%X< > G v.S A Z.[.{.G.e %X7X=Xg.8.N Y.E.3.w @ o.                      ",
"                | ~ ~ |   4 F XX&X&X X. & + & M M S.%X6X6X6X-Xp.i T.E.I.6.%XXX(                     ",
"              | :.n.b.:.+.H X J ;X7X&XXXXXXXXX Xp.;X7X7X7X-X;X! F R.4.P 2.$X.X>                     ",
"              5 C.{.{.C.- v.R q > ;X&X6X7X8X7X6X-X=X&X&X&X$Xs o F 6.P i K 3.2.)                     ",
"              ~ C.{.{.S.8 A !.H.4 9 < I &X7X6X6Xp.2 g ; # = t t 0 t <.#X*X2.(                       ",
"              ' G R b : n W _.!.> l.m.m. X! u.u.h X 5 zXnXlX;.. k 4.R.~.@XL [                       ",
"              ] . < yX>.= W _.Q.S.aXkXfX=.l j.j.z.z.S.fXlXzX;.* T 3.3.2.<.= (                       ",
"              ' + tXMXiX. W _.(.>XmXNXVX;.C.5X2X>X].'.v . # - T W 3 > 0 g F ;.                      ",
"              . yXmX3XK.# S _.(.>XmXNXVXs iXNXMXsXM.i o P I.g Y W r > F R.=XoX~                     ",
"              . uXNX>Xl.4 m B.M.>XmXNXVXlXnXNXNXhXm.1 2.R.R.g r n 2 2.2.K a.K ,                     ",
"            X.X pXvXhXOX. 1 i c.>XjXVXNXNXNXBXcX4Xl.e 2.6.2.G 0 y K 6.6.K u.i.i.-.                  ",
"          X.- 1 x.,XNXuX. t < R '.L.hXNXMXBXvX).b , t 0 3 u N.Y k E.E.T.R.&X6X&XF (                 ",
"          X.- o l.2XNXxXM.u H T n : G.2X2X2X<Xm 1 1 t T R V.).K.k R.E.4.- j 5.W.d  .                ",
"          X.e o b.,XhX5XQ.u Z.F.D 6 v k.V k.V H H H H D.Q.!.+X,.d R.E.W.+Xs . K +.                  ",
"          X.r Y A.H.L.(.!.r H.[.F.Y y 8 y y D A Z.F.F.`.}.:Xh.8.B T.I.@X=XXXU 5                     ",
"          } u `.G.u _.{.J.r G.{.[.Z.v.v.B.W S W Q.}.[.[.|.:Xg.8.B T.R.I.R.*XoX,                     ",
"          } u ^.c.t '.G.u 1 J.{.[.'.`.[.}.Z.B.`.[.[.[.[.|.:Xg.8.B R.<.; N W.6.7                     ",
"          [ s zXaXl.C.G 1 Y Z.!.{.Q.D.Q.A.D.Q.D.`.[.[.[.].:Xd.8.: P ;.[ ..L I ..                    ",
"          / J nXmX3Xs o n N.A Z.!.F.W D > S.!.W D.'.[._.).:Xh.9.$ 2       (  .                      ",
"          [ =.lXNXVX,.X D S A A W '.G.1 t 8 i W A F.'.B.F.:Xg.t.% t X.                              ",
"            X.,.zXBX1Xx.y v.B.T n V.J.J.V.C T n C v.Z.z.i.d.&.a - ; X.                              ",
"              . iXNX5Xl.O v C n + C Z.J.B.v.R 4 T v.A k.s.y.h $ p o.                                ",
"              o yXvX<Xv.#.$.9 9 &.T A A v.v.A r H A v.k.f.0Xh $ '                                   ",
"              ~ C.].c 9.wXy.*.*.wX%.v N.v.v.R u 1 G v.k.f.w.h $ '                                   ",
"              5 m.).c f *.%.@.@.&.r.7.l z x * % q.q.z V s.w.h _                                     ",
"              } :.F.=. ._ ...._ & w.g.0.0.9.0.7.w.e.0.H f.qXk ..                                    ",
"                } ~         ' * y r.e.e.e.e.qXwXwXwXqX$.*.r.$...                                    ",
"                          r - w t y y e e & %.qXwXwXqX%.@ a                                         ",
"                          - ; e t 2 L 6.4.I.3.&.%.&.%.h * q                                         ",
"                          o.p = - 3 K 3.3.3.2.& + % $ = p o.                                        ",
"                            o.p p r 0 2 2 2 3 w t p p p o.                                          ",
"                                  ' = w - - - w = ]                                                 ",
"                                    X.X.X.X.X.X.X.                                                  ",
"                                                                                                    ",
"                                                                                                    "
};
