/* XPM */
static char *_ae84e2c594149a5eb15ad9bc76cbe43sDQkWaDJs5S0Sl4H[] = {
/* columns rows colors chars-per-pixel */
"65 65 59 1 ",
"  c #28200C",
". c #202020",
"X c #2C2C2C",
"o c gray19",
"O c gray22",
"+ c #400000",
"@ c #4C0000",
"# c #580000",
"$ c #640000",
"% c #700000",
"& c #7C0000",
"* c #403018",
"= c #543C1C",
"- c #585400",
"; c #706C00",
": c #6C4824",
"> c #744C28",
", c #400040",
"< c #480048",
"1 c #500050",
"2 c #580058",
"3 c #600064",
"4 c #6C0070",
"5 c gray25",
"6 c #484848",
"7 c gray33",
"8 c #646464",
"9 c gray44",
"0 c #7C7C7C",
"q c #880000",
"w c #980000",
"e c #A40000",
"r c #B00000",
"t c #BC0000",
"y c #C80000",
"u c #D40000",
"i c #E00000",
"p c #EC0000",
"a c #FC0000",
"s c #FC2020",
"d c #B45400",
"f c #CC6000",
"g c #FC7800",
"h c #A86840",
"j c #848400",
"k c #9C9C00",
"l c #FC8820",
"z c #CCC400",
"x c #E4D800",
"c c #FCF400",
"v c #E88C58",
"b c #840084",
"n c #9C009C",
"m c gray55",
"M c #989898",
"N c gray66",
"B c #B4B4B4",
"V c #C0C0C0",
"C c #D0D0D0",
/* pixels */
"7O766666766666676O666666677777766666666677777776666OOO667766666OO",
"Oppuuuuuuuuue667ppuuuuuuuuuuuuuuuuuue6O7ppppiiiiiiuuuuuyyyyttte6.",
"6cyrruqeuqye$X67ptqtqtqt&twtwt&t&tye%X6Oueyryrry%y&yryqre&ywyecXX",
"xzjBBBBBBBBBBBBBBBBBBBBBBBBBBBBBBBBBBBBBBBBBBBBBBBBBBBBBBBBBBzz;k",
"hk-9900000000000000000000000000000000000000000000000000000999;v->",
"6=e0000MMMMMMMMMMMMMMMMMMMMMMMMMMMMMMMMMMMMMMMMMMMMMMMMMM0900#hXX",
"6t&M0se++7%%%%%%%%%%%%%%%%%%%%%%%%%%%%%%%%%%%%%%%%erai0+++0V9#+XX",
"6teN0eVM9+0NVCVVBBBBBBBBBBBBBBBBBBBBBBBBBBBBBBBBVVVVV0+09Ms09#+XX",
"6&$BM+MVM0mMNNm0NCVBBBBBBBBBBBBBBBBBBBBBBBBBBBBm48VBNNN9NCe90++XX",
"66XCN+MNVM00MM729NCCVVBBBBBBBBBBBBBBBBBBBBBBVVm831MNNMMNC0+0M..XX",
"7OOCB79MBVM00m12220NCVVVVVBB1971111dfgBBBBVVm83211MMMMNCV87mN.XXO",
"puuBC+0MNBVM986<11220NBBBBBB1111101ddflBBBm8321116MMMNVVN0+MN##ur",
"rqqBC%MmMNB82986<<112220mBBB9111111dmBBm8332211169918NVNm0+NB##rw",
"qeqBCrNMmM8436986<<<<b2229mBB111111mBm8332b111<6974338NM0m%NB##w%",
"%eeBBwBMmm<3432686O<<4<2222BB111111BB233214<<O68613344Mm0m%NB##&#",
"eqqBBqVNMm<<3433267O,,<<<27BB111111BB7<<<<<<O66<123444m0mm%NB##&q",
"%e$BB%CBNM6<<34432<,,,,<<mBB91111119BBm<<<,,,<<1234447m0mM%BB##q#",
"%r$BB%CVBM86<2334324,,,<m19B11111111B9<m<,,<2<<23444700mmN%BB##%#",
"+@@BB%CC81977623342b1,,<1<1BB111111BB<<<<<<2412334708668MN%BB+#+@",
"XXXBB%BC21<677763342b111<1<0811111180<<<<<<422337m086,,<MN%BB..X.",
"776BB%BC321<<,O66782222<<<1111111111<<<<<<11278m071<,,,<NN%BB.XXO",
"7ppVV&VB3311<,,,<<2n222<<11111111111<<<<<122n22211<,,,,2NN%BB##XO",
"7pqCCwCV2321<<,,,<<b22211111111111111<<11222n2221<<,,,<2MN&BB#+XO",
"OprVVqVM92311<,,<,<4221111117789987711122222b221<<,,,,<9MN&BB#+X.",
"6t$BB&BMM9621<<<1<124111111184n44n481122222b221<<<,,,69MMBqBB#+XX",
"6trBB%B12689988765o<12b211110n4444n012122b2227765O5678634VwVV#+XX",
"7t%NN%N1122221<1<1<1<12b4111744444471124b22221<<<<,<<1234CwCC#+XO",
"6yeNN$N11122211<1<1<111111110n4444n0121212221<<<<<<<12233VwVV#+XX",
"6ewMM@M11212121111111111111174n64n47112122211<<<<<<<11343VqVV#+XX",
"66ONN#N11121211111171111711107464470121721117<<<<<<<11331B&BB..XX",
"777NN$N811111111691111171111700770071112711<1<96<<<112328B%BB.XXO",
"tttBB%BM811116991111119111111170071111211911<<<199611228MB%BB##te",
"ereBB%BBBMMMM911111119111111111111111111119<1<<<<19MMMMBNN$NN##eq",
"e&qBB%BBMM9111111111911111111111111111111119<1<1<12229MMMM#MM##%q",
"q&eBB%BB1111111111191111919111111111191911119<1<12222211mm@mm##%%",
"eq&BB%BB1111111111911118M91111111111119M8111191111222211MM#MM##qq",
"eq&BB&BB911111111911111M1111111111111111M111119112222219MM$MM##%q",
"%%qBB&BBM1111111911111M111111111111111111M1111191121211MNN$NN##%#",
"++@BBqBBB9111119111111111111111111111111111111119111219BBB$BB##+@",
"XXXVVqVVVB91119111111M11111111111111111111M11111191119BBBB%BB..X.",
"767CCeCCCBBMMMM11111MBn111111911119111111nBM11111MMMMBBBBB%BB.XXO",
"OpuVVwVVVBBBBBMM111MBBB911111111111111119BBBM111MMBBBBBBVVqVV##X.",
"7ueBBwBBBBBBB0dd0BBBB0d111111111111111111d0BBBB0dd0BBVVVVVqVV#+XO",
"6ueBBqBBBBBBBdddddddddd>>119B111111B911>>ddddddddddVVVVCCCwCC#+XX",
"6uqBBqBBBBBBBB08>dddd>>0BBBB11111111BBBB0>>dddd>80BBBVVVVVwVV#+XX",
"OueBB&BBBBBBBmddddddddddBBB1111111111BBBddddddddddmBBBBBVVqVV#+X.",
"7ueNN%NNNNBBBd>>mdd>Bm>dB01111111111110Bd>mB>ddm>>dBBBBBBB%BB#+XO",
"OyeNN%NNNNNNB>0mBd>BBBB071111111111111170BBBB>dBm0>BBBBBBB%BB#+X.",
"7e$BB%BBBBBBBBBBBd>BB0711111111111111111170BB>dBBBBBBBBBBB%BB++XO",
"O6XBB%MBBBBBBBBBBmdB111111111011110111111111BdmBBBBBBBBBBM%BB..X.",
"7O7BB%0BBBBBBBBBBBBB07111118B111111B81111170BBBBBBBBBBBBB0%BB.XXO",
"uuuBB0%0MBBBBBBBBBBBBB07118B01111110B81170BBBBBBBBBBBBBM0%0BB##te",
"&e#0BB0%%%0MBBBBBBBBBBBBBBBB11111111BBBBBBBBBBBBBBBBMm%%%0MB0##%$",
"e&&#0BBBM0%%%%0MBBBBBBBBBBBB81111118BBBBBBBBBBBBM0%%%%mMBBB0###@q",
"e&###70BBBBBM0%%%0MBBBBBBBBBB811118BBBBBBBBBBM0%%%0MBBBBB07###%qq",
"&w#####70BBBBBBM0%%%0MBBBBBBBB8118BBBBBBBBM0%%%0MBBBBB07#####$%e$",
"$e&e$#$####70BBBBBM0%%%0MBBBBBB88BBBBBBM0%%%0MBBBBB07######%#e%e@",
"$e&&$ww$######70BBBBBM0%%%%0MBBBBBBM0%%%%0MBBBBB07#######%e%#$e@@",
"&w#e$$q$&&e######+70BBBBBM0%%%0MM0%%%0MBBBBB07+XXX####e#e%e%e$e%$",
"@@@@@@@@@@@@@@@@++..X70BBBBBM0%%%%0MBBBB07@@@++.XX#++@@@@@@@@@@@@",
"XXXXXXXXXXXXXXXXXXX.....X70BBBBBBBBBB07.....X...XXXXXXXXX.....XX.",
"O7O7OOO666667OOOOXXXXXXX.....70BB07X.....XXXXXXXXOO66766665O5666.",
"77777777777777777776OOOXX.................XOOO6677777777777777776",
"**************************************************************** ",
"::::::::::::::::::::::::::::::::::::::::::::::::::::::::::::::::*"
};
