/* XPM */
static char *f97371a5feba4ab9d912d61d9773cbc4ucUyAbxXXHBNaLEm[] = {
/* columns rows colors chars-per-pixel */
"65 65 24 1 ",
"  c gray22",
". c #004040",
"X c #005858",
"o c #006C6C",
"O c #007070",
"+ c #007474",
"@ c #007878",
"# c #007C7C",
"$ c gray33",
"% c #646464",
"& c #008484",
"* c #008C8C",
"= c #009898",
"- c #009C9C",
"; c #00A4A4",
": c #00A8A8",
"> c #20B0B0",
", c #20B4B4",
"< c #48C0C0",
"1 c #74C8C8",
"2 c #9CDCDC",
"3 c #B8E8E8",
"4 c #D8F4F4",
"5 c gray99",
/* pixels */
"$$$$$$$$$$$$$$$$$$$$$$$$$$$$$$$$$$$$$$$$$$$$$$$$$$$$$$$$$$$$$$$$$",
"X2:::::,,,,,<<<,<<<,<,<,<,,,,,,,,,,,,:::::::::::::::::::::::::::X",
"X2;::11;:,,,,<,<,<,<<<<<,<,<,<,<,,,,,,,,,,,,,,,,:::::::::::11;::X",
"X2=;152*#::,,:,,<,<,<,<<<<<<<,<,<,<,<,<,,,,,,,,,,,,,,,,,,,152*#:X",
"X2==12;*#::::,:,,,,,,<,<,<<<<<<<<<<<,<,<,<,<,<,,,,,,,,,,,,12;*#,X",
"X2*==;*#:;;:::::,:,:,,,,<,<,<<<<<<<<<<<<<<<,<,<,<,<,<,,,,,,;*#::X",
"X2***==-;;;;;o:::o:,:o,,,o,<,o,<<o<<<o<<<o<<<o<<,o,<,o,<,<,,,,,,X",
"X2****==--;;;;;:::::,:,:,,,,,,<,<,<<<<<<<<<<<<<<<<<<<<<,<,<,<,<,X",
"X2******==--OOOOOOOOOOOOOOOOOOOOOOOOOOOOOOOOOOOOOOOOOO4<<<<<,<,<X",
"X2&******===OXXXXXXXXOOOOOOOOOOOOOOOOOOOOOOOOOOOOOOOO14<<<<<<<<<X",
"X2&&*>>;***=OX--=:::;::::::,:,:,,,,,,,,<,<,<,<<<<<<<<24<<<<11;:<X",
"X1#&>2<*O***OX==--:=:=;:::::::,:,:,:,:,,,,<,<,<,<<<<<24<<<152*#<X",
"X1##=<;*O***OX*==---=:::;::::::::,:,,,,,,,,,,,,<,<,<<24<<<12;*#<X",
"X1###=*OO&**oX=*===---:=:=;:::::::,:,:,:,:,,,,,,,,<,<24<<<,;*#:<X",
"X1###OOO#*&*oX**=====--:=:::;::::::::,:,:,,,,,,,,,,,,24<,<<<<<<<X",
"X1@####&&#&&oX****=*===--=:=:=;:::::::::,:,:,:,,,,,,,24,<,<,<<<<X",
"X1@@####&&&&oX*****=*====--:=:::;::::::::,:,:,,,,,,,,24,,,,<,<,<X",
"X1@@@####&&&oX******===*===--=:=:=;:::::::::,:,,,:,,,24,,,,,,,<,X",
"X<@@&==*##&&oX&*&****=*======--:=:::;::::::::::,:,,,,24,,,:11;:,X",
"X<+@=,;*O##&oX&&*&*&**=*=*====---=:=:=;:::::::::,:,:,24:,,152*#,X",
"X<+@*;;@X###oX&&&*&******=======---:=:::;::::::::::,:24,,,12;*#,X",
"X<++O@OOX@##XX&#&&*&*&****=*=*====---=:=:=;::::::::::24:,:,;*#:,X",
"X<++oXXXo#@#XX#&&&&*&******=========---:=:::;::::::::24,:,,,,,,,X",
"X<O+++@@@@#@XX##&#&&&&*&****=*=*=*===----=:=:=;::::::24:::,:,:,:X",
"X<O+++@@@@@#XX###&&&&&&******=*========----:=:::;::::24::::::,:,X",
"X<oO++++@@@@XX####&#&&&&*&****=*=*=*=====----=:=:=;::24:::::::,:X",
"X<oO#=*&+@@@XX#####&&&&&&*&******==========----:=:::;14::::11;::X",
"X<oo=,=*O+@@XX######&#&&&&*&******=*=*======--=--=:=:14:::152*#:X",
"X<Oo*=*OX++@XX@######&&&&&&*&******=*=========-----:=13:;:12;*#:X",
"X<+OOOOXX+@@XX#@######&#&&&&*&******=*=*========-----13=:=,;*#::X",
"X<+OoXXXo++@XX@#@######&#&&&&*&********=*=*=======---13:=:::;:::X",
"X<@+OooO++++XX@@#@######&#&&&&&&*&******=*==========-13--=:=:=;:X",
"X,@+OooOO+++XX@@@#@######&#&&&&&&********=*=*========13-=--:=::;X",
"X,@@+OooO+++XX@@@@#@######&#&&&&&&*&*&****=*=========13=-----=:=X",
"X,@@#*#ooO++XX+@@@@#@######&#&&&&&&*&********=*======13===:11;:;X",
"X,@@*;=#OOO+XX++@@@@#@######&#&#&&&&*&*&******=*=*===<2===152*#-X",
"X,#@*=*OXoO+XX+++@@@@#@######&#&&&&&&*&********=*====<2===12;*#=X",
"X,#@OOOXXooOXX++++@@@@#@######&#&#&&&&*&*&******=*=*=<2====;*#:-X",
"X>##oXXXoooOXX+++@+@@@@#@########&&&&&&*&**********=*<2=========X",
"X>##@@++OoooXX++++@+@@@@#@######&#&#&&&&*&*&******=*=<2=========X",
"X>##@@@+OOooXX+++++@+@@@@#@########&&&&&&&&**********<1=========X",
"X>###@@++OOoXXO+++++@@@@@@#@######&#&#&#&&&&*&*******<1*===*====X",
"X>##&=*@OOOoXXOO+++++@@@@@@#@########&&&&&&&&*&******<1**=:<<;*=X",
"X>&#=,=*O+OOXXoO++++++@@@@@@#@######&#&#&#&&&&*&*****<1*=*<21*#=X",
"X>&#*=*OX+OOXXoOO++++++@@@@@@#@########&&&&&&&&*&****,1***,11*#=X",
"X>&&OOOXX++OXXooOO++++++@@@@@@#@######&#&#&#&&&&*&***,1****;*#**X",
"X>&&oXXXo++OXXoooO+++++++@@@@@@#@########&#&&&&&&*&**,1******=**X",
"X>&&###@@@++XXoooOO+++++@+@@@@@@#@######&#&#&#&&&&*&*,<*******=*X",
"X>&&&##@@@++XXOoooOO+++++@+@@@@@@#@########&#&&&&&&&&,<*********X",
"X>&&&###@@@+XXOooooO++++++@+@@@@@@#@######&#&#&#&&&&&><*********X",
"X>&&&=**#@@+XXOOoooOO++++++@+@@@@@@#@########&#&&&&&&><*&**,,;**X",
"X>&&=,=*O@@+XXOOOoooOO++++++@+@@@@@@#@######&#&#&#&&&;<&*&,2<*#*X",
"X>&&*=*OX@@@XXOOOooooO+++++++@+@@@@@@#@########&#&&&&;,&&*,<;&O*X",
"X>*&OOOXX@@@XX+OOOoooOo+++++++@@@@@@@@#@######&#&#&#&;,&&&*;*#O*X",
"X>*&oXXXo#@@Xo***&&&&&&&&**********************====;;;,&&&&*OO**X",
"X>*&&&&###@@X&==*************=======;;;;;;;;;;;;;;>,,,,&&&&&****X",
"X>*&&&&####@@+++OOOooooOo++++++@@@@@@@@@##@########&#&&&&&&&&&**X",
"X>*&&&&####@@.+++.OOo.ooO.+++.++@.@@@.@@@.#@#.###.&#&.&#&&&&&&&*X",
"X>**#==@###@@@+++OOOOooooO+++++++@@@@@@@@@@#@########&#&&&&;;*&&X",
"X>**=<>#o###@@@+++OOOooooOo+++++++@+@@@@@@@@#@######&#&#&#;1,*O&X",
"X>**=>&oX###@@@+++OOOOooooOO+++++++@+@@@@@@@@#@########&#&;,;&O&X",
"X>**#ooXX####@@@+++OOOoooooO++++++++@+@@@@@@@@#@######&#&#&&&OO&X",
"X>**oXXXO####@@@+++OOOOooooOo++++++++@+@@@@@@@@#@########&#OOO&&X",
"%%%%%%%%%%%%%%%%%%%%%%%%%%%%%%%%%%%%%%%%%%%%%%%%%%%%%%%%%%%%%%%%%",
"                                                                 "
};
