/* XPM */
static char *b84a3871c31441a0981b4677a20b7fd0hZW1lSIt4U8oyd23[] = {
/* columns rows colors chars-per-pixel */
"50 50 214 2 ",
"   c #010202",
".  c #0A0601",
"X  c #030D01",
"o  c #0D0F03",
"O  c #01020C",
"+  c #03090A",
"@  c #120D00",
"#  c #1A0A00",
"$  c #061403",
"%  c #0B1502",
"&  c #0D1B01",
"*  c #131401",
"=  c #191600",
"-  c #131D02",
";  c #1D1D00",
":  c #13140B",
">  c #10180B",
",  c #1D1E0A",
"<  c #010214",
"1  c #02011C",
"2  c #110A1A",
"3  c #071113",
"4  c #031018",
"5  c #0E1B14",
"6  c #161C12",
"7  c #191A15",
"8  c #141C1C",
"9  c #1F1E19",
"0  c #13171A",
"q  c #211E04",
"w  c #241A0D",
"e  c #241F19",
"r  c #271E15",
"t  c #192300",
"y  c #172900",
"u  c #19230C",
"i  c #1C2614",
"p  c #1A231C",
"a  c #1D2A19",
"s  c #202000",
"d  c #26240A",
"f  c #222413",
"g  c #232D1A",
"h  c #27231A",
"j  c #020123",
"k  c #000A22",
"l  c #080925",
"z  c #01022B",
"x  c #1C0D20",
"c  c #0D1721",
"v  c #0E132C",
"b  c #0B1829",
"n  c #1B1E21",
"m  c #191D29",
"M  c #13152C",
"N  c #010234",
"B  c #0C0B34",
"V  c #01023C",
"C  c #090238",
"Z  c #020A3B",
"A  c #1B1D34",
"S  c #1A1936",
"D  c #0B212C",
"F  c #1C2424",
"G  c #1F2923",
"H  c #1B232B",
"J  c #1D282C",
"K  c #172323",
"L  c #1B2332",
"P  c #16203B",
"I  c #1C223A",
"U  c #232521",
"Y  c #2A2C24",
"T  c #222229",
"R  c #2B2C2C",
"E  c #242C29",
"W  c #3F2D2B",
"Q  c #243026",
"!  c #212737",
"~  c #262D34",
"^  c #292A34",
"/  c #252A3D",
"(  c #2A2A3A",
")  c #22223A",
"_  c #312A32",
"`  c #27313B",
"'  c #29323B",
"]  c #353533",
"[  c #535428",
"{  c #41423D",
"}  c #535D3B",
"|  c #566137",
" . c #010244",
".. c #080146",
"X. c #01014C",
"o. c #000B4D",
"O. c #0C0B4D",
"+. c #0A1040",
"@. c #0E1148",
"#. c #141342",
"$. c #161D43",
"%. c #1D1C45",
"&. c #1C1E4D",
"*. c #010154",
"=. c #0A0653",
"-. c #01015C",
";. c #09035A",
":. c #00085A",
">. c #0D0D53",
",. c #1D0F5C",
"<. c #1C1751",
"1. c #181B50",
"2. c #1B1A5C",
"3. c #12185B",
"4. c #211E4B",
"5. c #201B53",
"6. c #211D5A",
"7. c #1E214E",
"8. c #252545",
"9. c #262A45",
"0. c #23204D",
"q. c #252A48",
"w. c #2B2648",
"e. c #010164",
"r. c #0B0262",
"t. c #000865",
"y. c #01016C",
"u. c #0B066D",
"i. c #00086D",
"p. c #0F0A6B",
"a. c #13066F",
"s. c #1D1965",
"d. c #19166B",
"f. c #010174",
"g. c #0A0374",
"h. c #01017C",
"j. c #0A027A",
"k. c #040A7C",
"l. c #130C72",
"z. c #180C7A",
"x. c #160E7E",
"c. c #0F107A",
"v. c #121575",
"b. c #1C1670",
"n. c #1A1B77",
"m. c #16107A",
"M. c #222061",
"N. c #433C65",
"B. c #484F48",
"V. c #474D4D",
"C. c #514E49",
"Z. c #49544C",
"A. c #535A48",
"S. c #4B4F55",
"D. c #444758",
"F. c #464C5E",
"G. c #4A4D5C",
"H. c #524F56",
"J. c #4C5255",
"K. c #4B525B",
"L. c #525355",
"P. c #5E545D",
"I. c #4C4D65",
"U. c #4B5161",
"Y. c #010184",
"T. c #0B0384",
"R. c #01018B",
"E. c #0A008B",
"W. c #0C0D8A",
"Q. c #060A8A",
"!. c #150E83",
"~. c #14118B",
"^. c #000095",
"/. c #000097",
"(. c #030096",
"). c #010193",
"_. c #0B0095",
"`. c #01019A",
"'. c #010599",
"]. c #00009F",
"[. c #02029C",
"{. c #04009C",
"}. c #02019B",
"|. c #08029B",
" X c #090D9A",
".X c #120C95",
"XX c #120C9B",
"oX c #12059B",
"OX c #0000A2",
"+X c #0101A6",
"@X c #0101A4",
"#X c #0902A5",
"$X c #0008A5",
"%X c #0201AC",
"&X c #0608AA",
"*X c #150CA7",
"=X c #0000B2",
"-X c #0200B2",
";X c #0201B3",
":X c #0900B0",
">X c #0300BC",
",X c #0903BB",
"<X c #1C18B3",
"1X c #0300C2",
"2X c #0400CA",
"3X c #0609C8",
"4X c #0A09CF",
"5X c #1712CE",
"6X c #0601D4",
"7X c #100DD0",
"8X c #1B1CD7",
"9X c #231CCC",
"0X c #0000E5",
"qX c #0200E9",
/* pixels */
"G.K.J.J.L.L.H.G.R ( Y ( w.R ( ( ( a ' ^ 8.W ` U ~ ~ ~ 9.q.~ Q 9._ Y 9.~ 9.~ q.! D.C.I.P.G.H.J.H.[ N.",
"g.Y.Y.Y.R.R.Y.h.R.(.R.R.Y.R.(.h._.y.Y.g.g.d v._.E.h.h.R.h.j.h.f.w.~ T.h.R.h.g.Y.Y.-.i.8 '.h.R.h.T p.",
").[.[.R.Y.).R.h.(.h.R.R.f.Y.Y.Y.f.Y.y.e. .; Q.|.R.).(.R.h.f.h.h.1 H R.>X-X(.+X%X[.).h.4 [.[.R.-.o *.",
"[.h.f.Y.Y.f.h.{.).y.h.f.f.h.f.R.y.h.o.-. .* Q.Y.[.Y.R.h.f.Y.Y.*.j J [.>X;X$X>X;X-XE.h.  [.#X).N   -.",
"[.R.h.h.f.y.y.f.h.h.Y.-.e.f.e.y.X.X.X.X.*.=  X).f.(.Y.e.y.e.*.-.j G +X+X-X7XOX[.(.j.f.  f.e.i.V . -.",
"[.R.R.+X+XR.Y.).).(.Y.y.y.y.*.e.g.f.e.*.X.= W.).R.Y.f.f.f.h.e...< p {.[.&X5XOX[.[.h.y.O ).e.X. .  -.",
").R.[.[.'.Y.f.f.[.R.h.h.h.e.e.y.f.-.Z e.X.@ k.[.f.h.f.f.f.y.*.*.j I [.[.OX+X[.%Xh.e.f.O Y.X.-.X.  -.",
"[.f.f.[.(.f.y.R.e.y.e.y.-.-.f.-.-.y.*.=.X.=  XY.R.i.f.R.Y.y.e.X.1 J -X;X+X(.t.(.[.j.-.< z ..X.N O e.",
").f.Y.R.y.f.R.).-.X.V  .f.y.f.e.y.e.X. ...% x.h.y.e.f.h.f.*.V e.1 H ).;X+X[.f.Y.Y.u.-.O OX[.-Xy.  -.",
"h.Y.f.R.h.e.f.f.y.X.*.*.*.y.N  .f.h.e.-.*.% T.f.f.*.y.f.-.X.*.*.z L [.-X>X[.Y.h.f.e.-.< ).Y.R.*.  X.",
"Y.f.f.f.h.f.X.e.e.*.:.e.y.X. .z X.-.X.*. .& T.h.f.-.*.*.X.X.-.-.< F [.+X-X[.f.y.f.*.*.< R.Y.y. .O ..",
"R.Y.-.:.y.:.X.e.*.-.*.-...*.*.X. .*.X.X.V > p.-.e.y.*.X.-.*. .V 1 H %XQ.$XR.[.f.y...*.1 y.f.*.*.<  .",
"z j   O < .   O   +   V N O j z z 1 z 1 1 * B z V z 1 1 j z z j + H OX-X'.(.R.h.f.X.X.  j + X     O ",
"-X).+X+X{.@XR.(.@XE.E.t f H p H H i L K n U T m T g 8 F F m F H 0 F (.>XY.[.h.h.f.=.=.< (.:X1X,XR.R.",
"[.[.).+X(.h.).R.h.Y.g.- v g.y.Y.|.R.OXY.y.-.-.*.7 , ;.j.R.R.g.h.a.c +X).$XY.+XR.y.X. .O %X2XqX>XE.f.",
"|.R.).Y.f.f.f.R.y.y.h.& p.Y.Y.OX).(.[.R.e.X.-...,.u f.(.:.y.y.e.r.+ R.%X%X+XR.y.-.-.e.< +X%X0X>X).i.",
"y.[.>X[.y.h.).e.y.y.y.O R.R.[.[.[.y.e.y.-.X.-.e.r.& T.R.R.*.*.-.;.O (.+X%Xy.y.e.e.*.X.z ;X;X+X$XY.*.",
"(.f.(.[.f.h.Y.*.e.y.*.+ Y.OX(.|.[.f.-.e. .-.*.X...& g.f.h.-.e.y.X.+ R.).[.y.y.y.*. . .1 %X>X%X%XY.-.",
"[.Y.f.R.Y.h.Y.X.-.e. .j h.-XR.R.f.y.f.y.-.*.*.*.;.& b k + < z 1 ..X Y.Y.R.e.e.e.e.*.X.j +X-XOX[.Y.-.",
"(.f.Y.Y.Y.R.f.y.*.-.X.V T.+Xh.h.Y.e.-.f.f.e.y.f.V g.|.[.[.R.f.R.N 5 (.).|.f.y.e.*.X...1 +X>X-X+XOXf.",
"(.f.h.%X).y.Y.h.y.X.X.V T.h.h.&XR.-.y.y.;XY.f.-.X.[.+XOX'.Y.i.Y.z F #XOX%XY.f.y.*.*.*.< OX,X>X%XR.-.",
"'.f.).OX(.R.y.f.Y.X.*.z y.*.R.9X%XR.Y.t.@XY.f.:.-.f.Y.(.h.h.f.*.z H -X+X%XR.h.y.-.-.-.1 [.>X-X+XY.-.",
"f.[.R.R.).f.e.*.y.V  .< e.e.).<XR.OX).[.Y.f.*.-.V f.+X[.(.f.t.g.j H +X[.[.Y.h.y. .X.*.< '.,X>X;Xf.*.",
"Y.Y.[.[.h.e.*.X. .V  .< e.Y.R.f.).h.OXi.OXX.e.y.N f.:X[.R.y.*.-.z F |.Y.Y.y.f.f. .*.*.O R.-X;X+XR.-.",
"f.h.(.).f.-.X.-.X.V *.X X.-.y.Y.).R.|.).t.-.-.-. .h.h.'.R.e.*.e.j F |.%X+X).f.*.e.*.*.O [.1X+X(.y.*.",
"f.Y.y.f.e.X.e.f.e.*.-.* S >.-.*.-.*.e.y.e.-.*.V j f.Y.Q.Y.e.-.-.j H @X%X[.R.h.f.-.y. .O [.;X;XY.e.*.",
"+Xh.f.y.-.-.*.y.e.=. .* h 0 X               O O + T.(.f.e.-.-.X.1 H %X+X(.Y.R.R.f.X.=.  ).;XY.Y.f.e.",
"(.Y.y.f.y.*.X. .X.X.X.* e r.e.e.e.e.f.f.-.=.;.*.- !.).y.*.*.X. .1 H @X+X[.Y.Y.Y.f.f.X.< [.;X;Xh.e.-.",
"i.e.*.e.y.*. .N .. .V : e *.y.Y.R.h.f.h.y.y.e. .* x.(.f.e.=.X.*.j F [.+XOXY.f.-.y.-.X.  R.-X(.h.*. .",
"Y.e.y.e.y.-. .X.V X.*.: i y.f.i.R.f.i.y.:.-.e.-.o !.[.R.h.e.-.-.z F (.OX[.Y.e. .:.X.V   h.).Y.Y.e.*.",
"R.Y.e.y.e. .X. .X. . .@ f *.Y.Y.y.e.f.f.e.e.e.*.o !.|.Y.Y.y.-.*.j F (.[.R.f.-.X.*.y.e.  g.R.R.f.e.X.",
"-.X.*.X. .V z V z N X.* f -.(.h.f.-.X.*.X.-.-. .% m.R.f.f.y.*. .j H |.(.f.e.e.e. .*...  :.t.-.e.*. .",
"w 7 y 6 C V  .h.u.-.N V B > l j     1 1 z z j z % l.R.y.e.e.X.X.1 G [.-.e.-.-.=. .-...O $.X.*.=.%   ",
"m (.[.#X;X1X%X+X+X>X>X-X+X%X+X)._.T.S T n H a T 6 ~.Y.y.:. .*.X.j L T.-.V X.*. . .e. .  A *.-.O.*   ",
"S +X%X%X+X$X[.-X(.+X-X+XOX+XR.f.h.f.N 8 -.e.h.e.- l.h.f.e.V X.-.1 T - $ $ & $ $ $ 3 % & 8 +.@.#.:   ",
"7.,X>X{.{.%X[.|.%X[.).).|.R.h.f.y.X.N p y.h.(.X.& 3.y.t.e.-.X.-.1 U 6.oX!.*X.XXX.X.X!..X~.XXv.d.o   ",
"&.OXOX(.+X:XR.Y.|.[.h.Y.R.Y.).f.X. .j i e.%X+Xf.# x .     .   .   m b.:X,X%X(.(.|.+X@X@X+X-X[.i..   ",
"7.+XOXR.).[.).).[.OXY.OXOXf.R.f.e.e.N u *.Y.-.*.% c.R.+X>X+X[.Y.j.- n.;X+X;X[.>X-XY.|.R.+XR.(.y.    ",
"1.$X$X+X+X(.Y.@X).(.[.-X$Xh.f.f.X.e.V p u.g.-.X.$ W.+X[.).k.Y.f.e.X 3.+X[.'.R.+X+Xy.y.h.R.y.e.-.    ",
"%.;X+XR.).%X[.Y.:.f.R.Y.h.f.f.e.X.u.1 n M z < O % z.|.f.f.f.-.*.;.  v.,X[.qX2Xk.[.h.y.(.k.Y.-. .    ",
"<.&XY.[.4X3X[.Y.h.h.).(.h.f.f.-.-. .V r D H &.L A v j 1 j j j j 1 . s.+X[.6X6X%X@X(.R.f.h.f.e. .    ",
"4.$XR.@X8X8X|.Y.(.f.y.y.f.h.-.V V *.z q ).E.E.#X@X|.[.).R.Y.f.f.y.2 M.%XR.(.(.'.Y.f.f.h.Y.y.*.X.    ",
"%.;X>X%X$X(.f.f.f.y.*.*.y.e.*.X. .*.z s (.Y.f.Y.).(.[.'.R.f.e.*.X.. s.;X[.(.R.f.h.h.Y.R.f.-.X. .    ",
"A 1X$X+XY.-.R.{.h.y.X.X.e.f.-.-. . .V q [.).%X@XY.R.(.[.).f.e.-.e.  2.;XOXY.f.f.-.f.h.f.e.e.*. .    ",
") [.>X|.Y.Q.i.).[.R.-.*.y.y.:.*.*.X.N ; (.Y.R.h.f.h.R.R.Y.h.e.*.*.. s.-X%XR.Y.h.X.-.-.X. . .X. .    ",
"%.%XR.).R.h.f.-.).Y.e.-.y.y.-.*.e.X.z ; (.).Y.e.f.f.f.h.f.y.;.*. .O d.'.).(.[.f.y.-.*.X. .V V X.    ",
"<.[.e.-.y.h.h.h.f.-.X.*.e.f.y.X.e.X.j u h.R.h.:.f.f.f.y.e.e.-.X.*.. b.+XOXf.f.*.e.*.X.*.-.*.*.*.    ",
"I [.R.j.y.e...*.:.X.-.-. . .X.X.X.*.z w f.h.f.y.-.-.*.*.X.*.*.;.X.. 2.h.h.f.R.f.-.-.*.X.*.-.X.N O . ",
"2.p.f.y.y.y.y.y.e.e.y.e.e.y.e.y.g.f.$.g E.f.;.y.y.e.e.y.e.e.y.e.g.U 7.|.y.:.h.f.e.e.e.e.e.e.e.e.Y n ",
"A.J.F.K.K.K.G.K.K.K.K.K.K.K.K.K.S.V.L.| G.B.K.G.K.K.K.K.K.K.K.K.F.| A.I.S.G.U.Z.K.K.K.K.K.L.J.J.{ ] "
};
