/* XPM */
static char *ae31757ddbcf40bbbcdf23242c9aea46Ikp2DYMGY7gUdT6M[] = {
/* columns rows colors chars-per-pixel */
"65 65 61 1 ",
"  c black",
". c #28200C",
"X c #382C14",
"o c #202020",
"O c #2C2C2C",
"+ c gray22",
"@ c #4C0000",
"# c #640000",
"$ c #700000",
"% c #7C0000",
"& c #403018",
"* c #483818",
"= c #543C1C",
"- c #5C4020",
"; c #6C4824",
": c #744C28",
"> c #484848",
", c gray33",
"< c #646464",
"1 c gray44",
"2 c #7C7C7C",
"3 c #880000",
"4 c #980000",
"5 c #A40000",
"6 c #A80000",
"7 c #D40000",
"8 c #FC0000",
"9 c #9C4C00",
"0 c #B45400",
"q c #80502C",
"w c #885830",
"e c #905C34",
"r c #9C6038",
"t c #A0643C",
"y c #E46C00",
"u c #FC7800",
"i c #A86840",
"p c #B47044",
"a c #BC7848",
"s c #C87C4C",
"d c #9C9C00",
"f c #B4AC00",
"g c #FC8820",
"h c #CCC400",
"j c #E4D800",
"k c #D08050",
"l c #DC8854",
"z c #E88C58",
"x c #F0945C",
"c c #FC9C60",
"v c #FCA470",
"b c gray55",
"n c #989898",
"m c #FCB080",
"M c #FCB890",
"N c #FCBC9C",
"B c #FCC4A4",
"V c #FCD4BC",
"C c #C0C0C0",
"Z c #D0D0D0",
"A c gainsboro",
/* pixels */
".&&&&&&&&&&&&&&&&&&&&&&&&&&&&&&&&&&&&&&&&&&&&&&&&&&&&&&&&&&&&&&&&",
"&;;;;;;;;;;;;;;;;;;;;;;;;;;;;;;;;;;;;;;;;;;;;;;;;;;;;;;;;;;;;;;;;",
"-eeeeeeeeeeeeeeeeeeeeeeeeeeeeeeeeeeeeeeeeeeeeeeeeeeeeeeeeeeeeeeee",
".=======X=.X==============X=.X====X=.X======X=.X===========X=.X==",
"&**;::::=e.=e-****::*;*;**=e.=e:*:=e.=e-***-=e.=e*:**:*:*::=e.=e;",
"&**;:::-=e.=e;***=::*;*;**=e.=e:*:=e.=e:-*-:=e.=e*:**:*:*::=e.=e;",
"&**-::fffffffffffffffffffffffffffffffffffffffffffffffffffffd0.=e;",
"&=*=;:fggggggggggggggggggggguuuuuuuuuuuuuuuuuuuyyyyyyyyyyy00=.=e;",
".;**-:fg*************************************-------------d0=.=e=",
".;*=*-fg*,,,,,,,,,,,,,,,,,,,,,,<<<<<<<<<<<<<<<<<<<11111111f0=.=e=",
".:=**=fg*,nnnnnnnnnnnnnnnnnnnnnnnnnnnnnnnnnnnnnnnnnnnnnnnnf0=.=e=",
".:=***fg*,nnnnnnnnnnnnnnnnnn2<>>>>>>>2bnnnnnnnnnnnnnnnnnnnf0=.=e*",
".;:***fg*,nnnnnnnnnnnnnnnnn,>>ooooooooo>>2nnnnnnnnnnnnnnnnf0=.=e*",
".;:=**fg*,nnnnnnnnnnnnnnnn,>oo++,+++++ooo>nnnnnnnnnnnnnnnnf0=.=e*",
".-::*=fg*,nnnnnnnnnnnnnnnls1+++,,b2,+>,++oonnnnnnnnnnnnnnnf0=.=e*",
".=:::=fg*,nnnnnnnnnnnnnnncmmm1sa12b<O<1<+Oo>nnnnnnnnnnnnnnf0=.=e=",
".*;::-fg*,nnnnnnnnnnnnnnlmMMNm1ka,,+O>,>>Ooo<nnnnnnnnnnnnnf0=.=e=",
".*;:::fg*,nnnnnnnnnnnnnncmMMBm1k++++O++++Ooo>nnnnnnnnnnnnnf0=.=e=",
"&*-;::fg*,nnnnnnnnnnnnncmmMBmmmx++++O++++OooOnnnnnnnnnnnnnf0=.=e;",
"&*=;::fg*,nnnnnnnnnnnnnsiavBmmmmprrwq+++OoooOnnnnnnnnnnnnnf0=.=e;",
"&**-::fg*<nnnnnnnnnnnnnnXXwaBmmMvxiiiiq+oooOOnnnnnnnnnnnnnf0=.=e;",
"&**=::fg*<nnnnnnnnnnnnnMs>avxmBvxxlxxie-oooO>nnnnnnnnnnnnnf0=.=e;",
"&=*=-=fg*<nnnnnnnnnnnnMVmlvmmmvxxzc-ix--ooO>1nnnnnnnnnnnnnh0&.=e;",
"&=**=*fg*<nnnnnnnnnnnBVBvclMmvxxzlvkqv--ooO1nnnnnnnnnnnnnnh0&.=e;",
"X=****fu*<nnnnnnnnnnnzaaasclccczllkixa--oO>nnnnnnnnnnnnnnnh0&.=e-",
".;****fu*<nnnnnnnnnnnnno-vlvccxzlscvk:--oO1nnnnnnnnnnnnnnnh0&.=e=",
".;****fu*<nnnnnnnnnnnnn-rmvxvxzsaikw:::-->nnnnnnnnnnnnnnnnh0&.=e=",
".;=***fu*<nnnnnnnnnnnnnMccmvxxsiiralee:--1nnnnnnnnnnnnnnnnh0&.=e*",
".-=***fu*<nnnnnnnnnnnnnkvxmvczsirrpvlaw--nnnnnnnnnnnnnnnnnh0&.=e*",
".=;***fu*<nnnnnnnnnnnnnvMvlclarerpvvvxai::nnnnnnnnnnnnnnnnj0&.=e*",
".=;=**fu*<nnnnnnnnnnnnnxvlaireerplvvaaeq::2bnnnnnnnnnnnnnnj0&.=e*",
".*-=*;fu*<nnnnnnnnnnnnnnnnrwwwrplvaaeeeqq=::1bnnnnnnnnnnnnj0&.=e*",
".*=;=;fu*<nnnnnnnnnnnnnnnnnnprppvaeerew:=qq:::1bnnnnnnnnnnj0&.=e*",
".*=;=;fu*<nnnnnnnnnnnnnnnnbkppkveerrr:=qttteeqw:1bnnnnnnnnj0&.=e*",
".**-;-fu*<nnnnnnnnnnnnnnbbkakkprrpp:=qtppppppprrw:1nnnnnnnj0&.=e=",
".**=-=fu*<nnnnnnnnnnnnnb1kkakstppw=qtppppppppppprw:2nnnnnnj0&.=e=",
"X***=*fu*<nnnnnnnnnnnnb1:ktkkssp:=rppppirqrrppppprq:2nnnnnj0&.=e-",
"&*****fu*<nnnnnnnnnnnn1q:ktkksp::tppppitqqrrrrwwwwwq:nnnnnj0&.=e;",
"&*****fu*<nnnnnnnnnnnbqq:kqtkp::ppppppte:qrrwrrrwwww:nnnnnj0&.=e;",
"&=****fu*<nnnnnnnnnnn1ee:r:t:=tppppppieq--ppppprrwqq-nnnnnj0&.=e;",
".=****fu*<nnnnnnnnnnnree:q:tteppppppptq--ppkppprpr::*nnnnnj0&.=e=",
".;=***fu*<nnnnnnnnnnbree-:wttpppppppiiq-ppkppkrepr:-*nnnnnj0&.=e=",
".;=***fu*<nnnnnnnnnn1ree::ttaasspppprq--pkppkprepw:-*nnnnnj0&.=e*",
".;-=*=fu*<nnnnnnnnnntree:wtaassaaa:rw--rrpppkretpw:-*nnnnnj0&.=e*",
".;;===fu-<nnnnnnnnnbtte::ttaasaaa:rww-nAArkkpteppq-*,nnnnnj0&.=e*",
".-;-=-fu-<nnnnnnnnn1teee:tte:**aa:w--nOO,A7k:repp:-*1nnnnnj0&.=e*",
".=;;-;fu-<nnnnnnnnbrree:wtpaa**::w-nOAOZAAA7:erpp:-*2nnnnnj0&.=e*",
".=;;-;fy-1nnnnnnnn1iiie:ttaasqiww-%n,OOOO,C644epp:*-nnnnnnj0&.=e*",
".*;:::fy-1nnnnnnnnrrii::tpaaseiww%58AAAOAOn6433ew:*-nnnnnnj0&.=e*",
".*-:::fy-1nnnnnnnnpiee:qtpaaaiw-r447nOO,An2433%$:*--nnnnnnj0&.=e*",
".*=;::fy-1nnnnnnnnpeietetpaaaw-zasq=7nCCn2433%$#:*--nnnnnnj0&.=e*",
".*=;::fy-1nnnnnnnlspe:prrwwwazstzssq=7764433%$##@--:nnnnnnj0&.=e=",
".**-:;fy-1nnnnnnnlksppprrrrrzzzttzapp==4433%$##@--::nnnnnnj0&.=e=",
"X**=;;fy-1nnnnnnnnlkkllrrrsszzszazzprr==33%$##@---:innnnnnj0&.=e-",
"X**=;-fy-1nnnnnnnnnllnllppazzaaszzzsrr:=3%$##@--wwiannnnnnj0&.=e-",
"&***--fy-1nnnnnnnnnnnnnnskkkkairrsssrw;==$#@---wiiannnnnnnj0&.=e;",
"&***==fy-1nnnnnnnnnnnnnnnzzkkkkkkkkkkawwo%o:wiiannnnnnnnnnj0&.=e;",
"*=****fy-1nnnnnnnnnnnnnnnnnnnnnnnnnnnnnnnnnnnnnnnnnnnnnnnnj0&.=e:",
"*=****fyyfffffffffffffhhhhhhhhhhhjjjjjjjjjjjjjjjjjjjjjjjjjj0&.=e:",
"*-****f00000000000000000000000000000000000000000000000000000&.=e:",
"*-=***9======&&&&&&&&&&&&&&&&&&&&&&&&&&&XXXX&&&&&&&&&&&&&&&&&.=e:",
"*;=***=;==..=XXX&*&XXXX--*==..=---XX..=XXXXX**..*****XXXXX**..=e:",
"*;-***=;=e.=e****-****;::-=e.=e;-*=e.=e*****=e.=e-*:-******=e.=e:",
"X-------=e.=e-*******-----=e.=e-**=e.=e-***-=e.=e-*--******=e.=e-",
" ,,,,,,,,,,,,,,,,,,,,,,,,,,,,,,,,,,,,,,,,,,,,,,,,,,,,,,,,,,,,,,,,"
};
