/* XPM */
static char *_9225c57ab904f9ddb9469bae3e2a578sAoVGLA27vXGhp8H[] = {
/* columns rows colors chars-per-pixel */
"65 65 10 1 ",
"  c #28200C",
". c #382C14",
"X c #403018",
"o c #483818",
"O c #543C1C",
"+ c #5C4020",
"@ c #6C4824",
"# c #744C28",
"$ c gray33",
"% c #905C34",
/* pixels */
" XXXXXXXXXXXXXXXXXXXXXXXXXXXXXXXXXXXXXXXXXXXXXXXXXXXXXXXXXXXXXXXX",
"X@@@@@@@@@@@@@@@@@@@@@@@@@@@@@@@@@@@@@@@@@@@@@@@@@@@@@@@@@@@@@@@@",
"+%%%%%%%%%%%%%%%%%%%%%%%%%%%%%%%%%%%%%%%%%%%%%%%%%%%%%%%%%%%%%%%%",
" OOOOOOO.O .OOOOOOOOOOOOOO.O .OOOO.O .OOOOOO.O .OOOOOOOOOOO.O .OO",
"Xoo@####O% O%+oooo##o@o@ooO% O%#o#O% O%+ooo+O% O%o#oo#o#o##O% O%@",
"Xoo@###+O% O%@oooO##o@o@ooO% O%#o#O% O%#+o+#O% O%o#oo#o#o##O% O%@",
"Xoo+###OO% O%#OooO##o@o@ooO% O%@o#O% O%##+##O% O%o#oo#o#o##O% O%@",
"XOoO@##OO% O%#Ooo+#@o@o@ooO% O%@o#O% O%#####O% O%o#oo#o#o##O% O%@",
" @oo+#+oO% O%#+oO@#@o@o@ooO% O%@o#O% O%#####O% O%o#oo#o#o@#O% O%O",
" @oOo+OoO% O%#@o+##+o@o@ooO% O%+o#O% O%#####O% O%o#oo#o#o@#O% O%O",
" #OooOooO% O%##+@##+o@o@ooO% O%+o#O% O%#####O% O%o#oo#o#o+#O% O%O",
" #OooooOO% O%##@###Oo@o@ooO% O%oo#O% O%#####O% O%o#oo#o#o+#O% O%o",
" @#oooO#O% O%##@###Oo@o@ooO% O%o+#O% O%@####O% O%o#oo#o#Oo#O% O%o",
" @#OooO#O% O%#####@oo@o@ooO% O%o+#O% O%@###@O% O%o#oo#o#Oo#O% O%o",
" +##oO##O% O%#####@oo@o@ooO% O%o##O% O%+###@O% O%o#oo#o#Oo#O% O%o",
" O###O#+O% O%@####@oo@o@ooO% O%+##O% O%o@#@+O% O%o#oo#o#Oo#O% O%O",
" o@##+#OO% O%@####+oo@o@ooO% O%+#@O% O%o+@+oO% O%o#oo#o#+o#O% O%O",
" o@####OO% O%+####+oo@o@ooO% O%##@O% O%oo+ooO% O%o#oo#o#+o@O% O%O",
"Xo+@###oO% O%+####Ooo@o@ooO% O%##+O% O%oooooO% O%o#oo#o#@o@O% O%@",
"XoO@##+oO% O%O@###OoO@o@ooO% O%#@+O% O%oooooO% O%o#oo#o#@o@O% O%@",
"Xoo+##OoO% O%O@##@ooO@o@ooO% O%#@oO% O%oooooO% O%o#oo#o#@o+O% O%@",
"XooO##OoO% O%o+##@ooO@o@ooO% O%#+oO% O%+ooo+O% O%o#oo#o##o+O% O%@",
"XOoO+OooO% O%o+##+oo+@o@ooO% O%@ooO% O%@+o+@O% O%o#oo#o@#ooO% O%@",
"XOooOooOO% O%oO@@+oo+@o@ooO% O%+ooO% O%#@+@#O% O%o#oo#o@#OoO% O%@",
".OoooooOO% O%oO++Ooo++o@ooO% O%oooO% O%##@##O% O%o#oo#o+#OoO% O%+",
" @ooooo@O% O%ooOOooo@Oo@ooO% O%oooO% O%#####O% O%o#oo#o+#+oO% O%O",
" @ooooo@O% O%ooooooo@Oo@ooO% O%ooOO% O%#####O% O%o#oo#oO#+oO% O%O",
" @OoooO+O% O%ooooooO#oo@ooO% O%ooOO% O%#####O% O%o#oo#oO#@OO% O%o",
" +OoooOOO% O%oooooo+#oo@ooO% O%oo+O% O%@####O% O%o#oo#oO#@OO% O%o",
" O@ooo@OO% O%oooooo+#oo@ooO% O%oo@O% O%@####O% O%o#oo#oo##+o% O%o",
" O@Ooo@oO% O%oooooo@#oo@ooO% O%oO@O% O%+###@O% O%o#oo#oo##+O% O%o",
" o+Oo@+oO% O%Oooooo@#oo@ooO% O%o+#O% O%+@##@O% O%o#oo#oo@#@O% O%o",
" oO@O@OoO% O%+ooooO#@oO@ooO% O%O@#O% O%o@##+O% O%o#oo#oo@#@O% O%o",
" oO@O@OoO% O%@Oooo+#@oO@ooO% O%+##O% O%o+#@oO% O%o#oo#Oo+##O% O%o",
" oo+@+ooO% O%#+ooO+#+o+@ooO% O%@##O% O%oo@+oO% O%o#oo#Oo+##O% O%O",
" ooO+OooO% O%#@OoO##Oo+@ooO% O%###O% O%oo+ooO% O%o#oo#OoO##O% O%O",
".oooOoooO% O%##+o+##Oo+@ooO% O%##@O% O%oooooO% O%o#oo#OoO##O% O%+",
"XoooooooO% O%###+###oo@@ooO% O%##@O% O%oooooO% O%o#oo#+oO##O% O%@",
"XooooooOO% O%######@oo@@ooO% O%##+O% O%oooooO% O%o#oo#+oo@#O% O%@",
"XOoooooOO% O%@#####@oo#@ooO% O%#@+O% O%+ooooO% O%o#oo#@oo@#O% O%@",
" Oooooo+O% O%@#####+oo#@ooO% O%#@oO% O%+ooooO% O%o#oo@@oo+#O% O%O",
" @OoooO+O% O%+#####Ooo#+ooO% O%#+oO% O%@+oo+O% O%o#oo@#oo+#O% O%O",
" @OoooO@O% O%O#####ooo#+ooO% O%@+oO% O%#+o++O% O%o#oo+#OoO@O% O%o",
" @+OoO+@O% O%o@###@ooO#oooO% O%@ooO% O%#@++@O% O%o#oo+#OoO@O% O%o",
" @@OOO@+O% O%o+###+oo+#oooO% O%+ooO% O%##+@#O% O%o#ooO#OoO+O% O%o",
" +@+O+@OO% O%oO@#@Ooo@#oooO% O%oooO% O%##@##O% O%o#ooO#+oo+O% O%o",
" O@@+@@OO% O%ooO@+ooo@#oooO% O%ooOO% O%#####O% O%o#ooO#+OoOO% O%o",
" O@@+@@oO% O%oooOOooo#@oooO% O%ooOO% O%#####O% O%o#ooO#@OoOO% O%o",
" o@###@oO% O%OooooooO#@oooO% O%oo+O% O%####@O% O%o#ooo#@OoOO% O%o",
" o+###@oO% O%Ooooooo+#+oooO% O%oO@O% O%@###@O% O%o#ooo@#+ooO% O%o",
" oO@##@oO% O%+oooooo@#+oooO% O%o+#O% O%@###+O% O%o#ooo@#+OoO% O%o",
" oO@##+oO% O%@Oooooo@#ooooO% O%O@#O% O%+###+O% O%o#ooo+#@OoO% O%O",
" oo+#@+oO% O%#OooooO#@ooooO% O%@##O% O%+##@OO% O%o#ooo+#@+oO% O%O",
".ooO@@OoO% O%#+oooo+#@oo+oO% O%###O% O%O@#@OO% O%o#OooO@#+OO% O%+",
".ooO@+OoO% O%@@Oooo@#+oo+oO% O%###O% O%O@#+oO% O%o#OooO+#@OO% O%+",
"Xooo++ooO% O%@#OooO@#ooo@oO% O%###O% O%o+@OoO% O%o#Oooo+#@OO% O%@",
"XoooOOooO% O%+#@OoO##ooo@oO% O%###O% O%oO+ooO% O%o#OoooO@#OO% O%@",
"oOoooooOO% O%o@#@O##@ooo@oO% O%###O% O%ooOooO% O%o@+oooO+#@O% O%#",
"oOoooooOO% O%o+#####+ooo#oO% O%##@O% O%oooooO% O%o@@oooo+#@O% O%#",
"o+ooooo@O% O%oo####@ooo+#oO% O%##@O% O%oooooO% O%o+@OoooO@@O% O%#",
"o+OoooO@O% O%oo+@#@+ooo@#oO% O%#@+O% O%oooooO% O%o+#Ooooo++O% O%#",
"o@OoooO@O% O%ooo+@+oooo@#oO% O%#@+O% O%oooooO% O%oo#OoooooOO% O%#",
"o@+oooO@O% O%oooo+oooo@##+O% O%@+oO% O%oooooO% O%+o#+ooooooO% O%#",
".+++++++O% O%+ooooooo+++++O% O%+ooO% O%+ooo+O% O%+o++ooooooO% O%+",
"$$$$$$$$$$$$$$$$$$$$$$$$$$$$$$$$$$$$$$$$$$$$$$$$$$$$$$$$$$$$$$$$$"
};
